<?xml version="1.0" encoding="UTF-8"?>
<svg width="43px" height="40px" viewBox="0 0 43 40" version="1.1" xmlns="http://www.w3.org/2000/svg" xmlns:xlink="http://www.w3.org/1999/xlink">
    <!-- Generator: sketchtool 62 (101010) - https://sketch.com -->
    <title>37EF1277-157F-4BD7-9BA1-6E69931A60DD</title>
    <desc>Created with sketchtool.</desc>
    <g id="onepage_site" stroke="none" stroke-width="1" fill="none" fill-rule="evenodd">
        <g id="A_WHITE" transform="translate(-734.000000, -1643.000000)" fill="#fff" fill-rule="nonzero">
            <g id="SECTION_03" transform="translate(0.000000, 1130.000000)">
                <g id="TECHNOLOGY" transform="translate(733.000000, 513.000000)">
                    <g id="noun_data-flow-chart_2556971" transform="translate(1.000000, 0.000000)">
                        <path d="M22,5 C26.9705875,5 31,3.88076667 31,2.5 C31,1.11908056 26.9705875,0 22,0 C17.0294125,0 13,1.11908056 13,2.5 C13,3.88076667 17.0294125,5 22,5 Z M22,1.11111111 C26.5308571,1.11111111 29.1025621,2.021925 29.6484861,2.49996667 C29.1022696,2.97805556 26.5304489,3.88888889 22,3.88888889 C17.4695511,3.88888889 14.8977304,2.97805556 14.3515139,2.49996667 C14.8974379,2.021925 17.4691429,1.11111111 22,1.11111111 Z" id="Shape"></path>
                        <path d="M42.3095073,24.589857 L38.96875,22.8295637 L38.96875,21.1853273 C38.9555352,20.4944079 38.3545084,19.9439092 37.625,19.9545459 L34.9375,19.9545459 L34.9375,13.2727275 C34.9367593,12.5701104 34.3355756,12.0007017 33.59375,12 L30.234375,12 C29.8633164,12 29.5625186,12.2849171 29.5625,12.6363638 L29.5638135,14.5125166 C26.9669035,15.3282169 24.2551445,15.7690053 21.5196859,15.8200657 C21.5130008,15.8198717 21.5067456,15.8181821 21.5,15.8181821 C21.4925355,15.8181821 21.4856051,15.8200276 21.4782044,15.8202598 C17.2625818,15.8632144 14.460302,14.8191262 13.4414372,14.3602634 L13.4375,12.6351197 C13.4363991,12.6094837 13.4336325,12.5839363 13.4292158,12.5586224 C13.4270221,12.5417588 13.4272875,12.5241506 13.4237198,12.5077133 C13.4166009,12.4788946 13.4073235,12.4505928 13.395958,12.4230229 C13.3916714,12.4116829 13.3894979,12.3994456 13.3845563,12.3884174 C13.3702324,12.3579128 13.353383,12.3285293 13.3341656,12.300542 C13.3299227,12.2940956 13.3271109,12.2867329 13.3226228,12.2804424 C13.3033875,12.2546819 13.2821547,12.2303129 13.2591004,12.2075374 C13.2525194,12.2007602 13.247393,12.192777 13.240523,12.1862733 C13.2172906,12.1653166 13.1925143,12.1459509 13.1663816,12.1283229 C13.1576271,12.1221088 13.1501424,12.1144183 13.1410788,12.1085956 C13.1155356,12.0932628 13.0889295,12.0795796 13.0614415,12.0676392 C13.0496837,12.0621251 13.0390916,12.0548038 13.0269541,12.0499483 C13.0009497,12.0405956 12.97436,12.0327736 12.947337,12.026527 C12.9316722,12.0223333 12.9169917,12.0160015 12.9008734,12.0128929 C12.8563643,12.0042909 12.8110513,12 12.765625,12 L9.40625,12 C8.6644244,12.0007017 8.06324072,12.5701104 8.0625,13.2727275 L8.0625,19.9545459 L5.375,19.9545459 C4.64549285,19.9439092 4.04446661,20.4944059 4.03125,21.1853241 L4.03125,22.8295606 L0.690492656,24.589857 C0.264279975,24.8144303 0,25.240108 0,25.7020552 L0,29.1615826 C0,29.6235298 0.264279975,30.0492075 0.690492656,30.2737808 L4.04986766,32.0438804 C4.45605743,32.2579176 4.95019257,32.2579176 5.35638234,32.0438804 L8.71575734,30.2737808 C9.14197002,30.0492075 9.40624602,29.6235298 9.40625,29.1615826 L9.40625,25.7020552 C9.40624602,25.240108 9.14197002,24.8144303 8.71575734,24.589857 L5.375,22.8295637 L5.375,21.2272732 L12.4296875,21.2272732 L12.4296875,30.618919 L12.4303224,30.6248213 L9.08893016,32.3854455 C8.66271271,32.6100252 8.39843653,33.0357117 8.3984375,33.497666 L8.3984375,36.9571743 C8.39844148,37.4191215 8.66271748,37.8447992 9.08893016,38.0693725 L12.4483052,39.8394721 C12.8544949,40.0535093 13.3486301,40.0535093 13.7548198,39.8394721 L17.1141948,38.0693725 C17.5404075,37.8447992 17.8046835,37.4191215 17.8046875,36.9571743 L17.8046875,33.497666 C17.8046873,33.0357128 17.5404112,32.6100278 17.1141948,32.3854486 L13.7728026,30.6248245 L13.7734375,30.618919 L13.7734375,21.2272732 C13.7726968,20.5246561 13.1715131,19.9552475 12.4296875,19.9545459 L9.40625,19.9545459 L9.40625,13.2727275 L12.0952046,13.2727275 L12.0976872,14.3624366 C12.0951054,14.8526361 12.3928935,15.2997691 12.8610917,15.5086994 C13.9054206,15.9789021 16.6870839,17.0200631 20.828125,17.0861112 L20.828125,22.3821396 L17.5057031,24.0691206 C17.0692514,24.290753 16.7968748,24.7217868 16.796875,25.1908356 L16.796875,28.7503644 C16.7968808,29.2194068 17.0692567,29.6504323 17.5057031,29.8720604 L20.8650781,31.5778332 C21.26165,31.7792086 21.7383198,31.7792086 22.1348916,31.5778332 L25.4942666,29.8720604 C25.9307248,29.6504399 26.2031133,29.2194129 26.203125,28.7503644 L26.203125,25.1908356 C26.2031252,24.7217868 25.9307486,24.290753 25.4942969,24.0691206 L22.171875,22.3821396 L22.171875,17.0755858 C24.8266808,16.9670529 27.4529862,16.5121426 29.9765161,15.7237203 C30.532098,15.5544252 30.9081285,15.0640524 30.90625,14.5112757 L30.90625,13.2727275 L33.59375,13.2727275 L33.59375,19.9545459 L30.5703125,19.9545459 C29.8284869,19.9552475 29.2273032,20.5246561 29.2265625,21.2272732 L29.2265625,30.618919 L29.2271974,30.6248213 L25.8858052,32.3854455 C25.4595877,32.6100252 25.1953115,33.0357117 25.1953125,33.497666 L25.1953125,36.9571743 C25.1953165,37.4191215 25.4595925,37.8447992 25.8858052,38.0693725 L29.2451802,39.8394721 C29.6513699,40.0535093 30.1455051,40.0535093 30.5516948,39.8394721 L33.9110698,38.0693725 C34.3372825,37.8447992 34.6015585,37.4191215 34.6015625,36.9571743 L34.6015625,33.497666 C34.6015623,33.0357128 34.3372862,32.6100278 33.9110698,32.3854486 L30.5696776,30.6248245 L30.5703125,30.618919 L30.5703125,21.2272732 L37.625,21.2306905 L37.625,22.8295542 L34.2842427,24.5898474 C33.8580268,24.8144224 33.5937503,25.2401046 33.59375,25.7020552 L33.59375,29.1615826 C33.593754,29.6235298 33.85803,30.0492075 34.2842427,30.2737808 L37.6436177,32.0438804 C38.0498074,32.2579176 38.5439426,32.2579176 38.9501323,32.0438804 L42.3095073,30.2737808 C42.73572,30.0492075 43,29.6235298 43,29.1615826 L43,25.7020552 C43,25.240108 42.73572,24.8144303 42.3095073,24.589857 Z M8.0625,29.1615826 L4.703125,30.9316822 L1.34375,29.1615826 L1.34375,25.7020552 L4.703125,23.9319556 L8.0625,25.7020552 L8.0625,29.1615826 Z M16.4609375,36.9571743 L13.1015625,38.7272739 L9.7421875,36.9571743 L9.7421875,33.4976373 L13.1015625,31.7275377 L16.4609375,33.4976564 L16.4609375,36.9571743 Z M24.859375,28.7503644 L21.5,30.4561372 L18.140625,28.7503644 L18.140625,25.1908356 L21.5,23.4850628 L21.5,23.4850628 L24.859375,25.1908547 L24.859375,28.7503644 Z M33.2578125,36.9571615 L29.8984375,38.7272739 L26.5390625,36.9571743 L26.5390625,33.4976373 L29.8984375,31.7275377 L33.2578125,33.4976564 L33.2578125,36.9571615 Z M41.65625,29.1615826 L38.296875,30.9316822 L34.9375,29.1615826 L34.9375,25.7020552 L38.296875,23.9319556 L41.65625,25.7020552 L41.65625,29.1615826 Z" id="Shape"></path>
                        <path d="M13.734202,9.44499303 C14.7662893,9.92183821 17.5674995,11 21.7482547,11 C24.5907964,10.9797797 27.4124812,10.5263044 30.1104176,9.65610989 C30.6420028,9.48988755 31.0017912,9.00841853 31,8.46567922 L31,6.62480943 C31,6.27973671 30.7121765,6 30.3571364,6 C30.0020964,6 29.7142796,6.27973671 29.7142796,6.62480943 L29.7155364,8.4668976 C21.3675002,11.0835995 15.7952364,9.01329345 14.2894824,8.31740569 L14.2857153,6.62358793 C14.2850416,6.27898447 13.9974163,6 13.6428584,6 L13.6416016,6 C13.4710916,6.00028057 13.3076849,6.06640531 13.1873519,6.18381832 C13.0670189,6.30123133 12.9996236,6.46030795 13,6.62603094 L13.0037687,8.31954566 C13.0012997,8.80084368 13.2862262,9.23985675 13.734202,9.44499303 Z" id="Path"></path>
                    </g>
                </g>
            </g>
        </g>
    </g>
</svg>