<?xml version="1.0" encoding="utf-8"?>
<!-- Generator: Adobe Illustrator 22.1.0, SVG Export Plug-In . SVG Version: 6.00 Build 0)  -->
<svg version="1.1" id="Livello_1" xmlns="http://www.w3.org/2000/svg" xmlns:xlink="http://www.w3.org/1999/xlink" x="0px" y="0px"
	 viewBox="0 0 428.3 110" style="enable-background:new 0 0 428.3 110;" xml:space="preserve">
<style type="text/css">
	.st0{fill:#58595B;}
	.st1{fill:#EA973E;}
	.st2{fill:#E7873C;}
	.st3{fill:#E37639;}
	.st4{fill:#E06436;}
</style>
<g id="XMLID_31_">
	<path id="XMLID_43_" class="st0" d="M137.4,82.6V26.5h13.5c2.9,0,5.5,0.3,7.8,0.8c2.3,0.5,4.3,1.4,6,2.5c1.7,1.1,3,2.6,4,4.4
		c0.9,1.8,1.4,3.9,1.4,6.4c0,3.5-0.8,6.2-2.5,8c-1.7,1.8-4.2,3.2-7.7,4c3.7,1.1,6.5,2.7,8.4,4.9c1.9,2.1,2.8,5.2,2.8,9.2
		c0,4.9-1.6,8.9-4.8,11.7c-3.2,2.9-7.6,4.3-13.1,4.3H137.4z M146.4,50.6h4.5c7.5,0,11.2-3.3,11.2-10c0-1.1-0.2-2.1-0.5-2.9
		c-0.3-0.8-0.7-1.5-1.1-2.1c-0.4-0.6-1.1-1-1.9-1.4c-0.9-0.4-1.6-0.7-2.3-0.9c-0.7-0.2-1.7-0.4-3-0.5c-1.3-0.1-2.4-0.2-3.2-0.2
		c-0.9,0-2.1,0-3.7,0V50.6z M146.4,76.6h4.5c3.9,0,6.7-0.8,8.5-2.4c1.8-1.6,2.7-4.1,2.7-7.6c0-3.5-0.9-6-2.7-7.6
		c-1.8-1.6-4.6-2.4-8.5-2.4h-4.5V76.6z"/>
	<path id="XMLID_47_" class="st0" d="M186.1,82.6V26.5h9v56.1H186.1z"/>
	<path id="XMLID_49_" class="st0" d="M219.4,82.6V33.7h-11.2v-7.1h31.4v7.1h-11.2v48.9H219.4z"/>
	<path id="XMLID_51_" class="st0" d="M252.9,82.6V26.8h16.7c2.1,0,4,0.3,5.6,0.8c1.6,0.5,2.9,1.2,3.9,2.1c1,0.9,1.8,1.9,2.4,3.2
		c0.6,1.3,1,2.6,1.3,3.9c0.2,1.4,0.3,2.8,0.3,4.5c0,7.1-2.9,11.6-8.7,13.5l9.7,27.8H278l-9.1-27.2h-10.5v27.2H252.9z M258.4,51.4
		h11.1c1.6,0,2.9-0.3,4-0.8c1.1-0.6,1.9-1.4,2.5-2.4c0.5-1,0.9-2.1,1.1-3.2c0.2-1.1,0.3-2.4,0.3-3.9c0-1.2-0.1-2.3-0.2-3.2
		s-0.4-1.9-0.7-2.8c-0.4-0.9-0.8-1.7-1.4-2.3c-0.6-0.6-1.3-1.1-2.3-1.5c-0.9-0.4-2-0.6-3.3-0.6h-11.1V51.4z"/>
	<path id="XMLID_54_" class="st0" d="M298.8,66.4V43.1c0-2,0.2-3.8,0.5-5.4c0.3-1.6,0.9-3.2,1.7-4.7c0.8-1.5,1.8-2.7,2.9-3.7
		c1.2-1,2.7-1.8,4.5-2.4c1.8-0.6,3.9-0.9,6.3-0.9c2.4,0,4.5,0.3,6.3,0.9c1.8,0.6,3.4,1.4,4.5,2.4c1.2,1,2.2,2.2,2.9,3.7
		c0.8,1.5,1.3,3,1.7,4.7c0.3,1.6,0.5,3.4,0.5,5.4v23.4c0,11.4-5.3,17-15.9,17C304.1,83.5,298.8,77.8,298.8,66.4z M325.1,67.5V42
		c0-8-3.5-12-10.4-12c-6.9,0-10.4,4-10.4,12v25.6c0,8,3.5,12,10.4,12C321.6,79.5,325.1,75.5,325.1,67.5z"/>
	<path id="XMLID_57_" class="st0" d="M347.2,66.4V43.1c0-2,0.1-3.8,0.4-5.4c0.3-1.6,0.8-3.2,1.5-4.6c0.7-1.5,1.7-2.7,2.8-3.7
		c1.2-1,2.6-1.8,4.4-2.4c1.8-0.6,3.9-0.9,6.3-0.9c9.8,0,14.7,5.7,14.7,17v2.3h-5.3V42c0-1.8-0.2-3.4-0.5-4.8
		c-0.3-1.4-0.8-2.6-1.5-3.7c-0.7-1.1-1.7-2-2.9-2.6c-1.2-0.6-2.8-0.9-4.5-0.9c-1.6,0-3,0.2-4.2,0.6c-1.2,0.4-2.1,0.9-2.9,1.6
		c-0.7,0.7-1.3,1.6-1.8,2.6c-0.4,1-0.8,2.1-0.9,3.3c-0.2,1.1-0.3,2.4-0.3,3.9v25.6c0,1.8,0.1,3.4,0.4,4.8c0.3,1.4,0.8,2.6,1.5,3.7
		c0.7,1.1,1.7,2,3.1,2.6c1.4,0.6,3,0.9,5,0.9c1.8,0,3.3-0.3,4.5-0.9c1.2-0.6,2.2-1.5,2.9-2.6s1.2-2.4,1.5-3.8c0.3-1.4,0.5-3,0.5-4.8
		v-3.8h5.3v2.7c0,2-0.1,3.8-0.4,5.4c-0.3,1.6-0.7,3.2-1.4,4.7c-0.7,1.5-1.6,2.7-2.7,3.7c-1.1,1-2.5,1.8-4.2,2.4
		c-1.7,0.6-3.7,0.9-6,0.9c-2.4,0-4.5-0.3-6.4-0.9c-1.8-0.6-3.3-1.4-4.5-2.4c-1.2-1-2.1-2.2-2.8-3.7c-0.7-1.5-1.2-3-1.5-4.6
		C347.4,70.2,347.2,68.4,347.2,66.4z"/>
	<path id="XMLID_59_" class="st0" d="M394.2,82.6V26.8h5.5v29.3l16.7-29.3h5.7l-12.9,23L425,82.6h-5.8l-13.4-29.5l-6.1,9.8v19.7
		H394.2z"/>
</g>
<g id="XMLID_7_">
	<path id="XMLID_35_" class="st1" d="M93,40.3L90,31C80.7,2.6,57.6-4.9,38.4,14.3l-3.6,3.6"/>
	<polyline id="XMLID_34_" class="st2" points="95.8,48.7 93.9,43.2 33,19.7 29.6,23.1 	"/>
	<path id="XMLID_33_" class="st3" d="M26.2,26.5L13.5,39.2C-5.7,58.4,1.7,81.5,30.2,90.8l70.4-27.4l-3-9.2"/>
	<path id="XMLID_32_" class="st4" d="M34.8,92.4l32.9,10.8c28.4,9.3,43.9-6.2,34.6-34.6l-0.4-1.2"/>
</g>
</svg>
