<?xml version="1.0" encoding="UTF-8"?>
<svg width="41px" height="41px" viewBox="0 0 41 41" version="1.1" xmlns="http://www.w3.org/2000/svg" xmlns:xlink="http://www.w3.org/1999/xlink">
    <!-- Generator: sketchtool 62 (101010) - https://sketch.com -->
    <title>261525EE-4AAB-4755-8433-208798D1A4C9</title>
    <desc>Created with sketchtool.</desc>
    <g id="onepage_site" stroke="none" stroke-width="1" fill="none" fill-rule="evenodd">
        <g id="A_WHITE" transform="translate(-733.000000, -1346.000000)" fill="#fff" fill-rule="nonzero">
            <g id="SECTION_03" transform="translate(0.000000, 1130.000000)">
                <g id="BUSINESS-PROCESS" transform="translate(733.000000, 216.000000)">
                    <g id="noun_Business-Process_2654885" transform="translate(0.000000, 0.000000)">
                        <g id="Group">
                            <path d="M21.5693987,1.06138614 C22.9691019,1.06138614 24.2988199,1.18811881 25.6285379,1.44158416 L25.8384933,0.491089109 C24.4387902,0.237623762 23.039087,0.0475247525 21.5693987,0.0475247525 L21.3594433,0.0475247525 L21.3594433,0.998019802 L21.5693987,1.06138614 Z" id="Path"></path>
                            <g transform="translate(0.000000, 0.871287)">
                                <path d="M32.4170981,2.21782178 C30.9474098,1.33069307 29.4077363,0.633663366 27.7980777,0.126732673 L27.4481519,1.01386139 C28.9878254,1.45742574 30.4575137,2.15445545 31.8572168,2.97821782 L32.4170981,2.21782178 Z" id="Path"></path>
                                <path d="M39.2756435,12.5465347 L40.3254208,12.2930693 C39.485599,9.31485149 37.73597,6.52673267 35.2864895,4.37227723 L34.5166528,5.06930693 C36.7561778,7.03366337 38.4358216,9.63168317 39.2756435,12.5465347 Z" id="Path"></path>
                                <path d="M0.71382192,23.8891089 L5.05290166,23.8891089 L5.05290166,31.1128713 C5.05290166,31.3663366 5.26285713,31.619802 5.61278292,31.619802 L12.8212541,31.619802 C14.570883,31.619802 16.0405713,32.950495 16.0405713,34.5346535 L16.0405713,38.970297 C16.0405713,39.2237624 16.2505268,39.4772277 16.6004526,39.4772277 L30.5274989,39.4772277 C30.8074395,39.4772277 31.0873801,39.2871287 31.0873801,38.970297 L31.0873801,34.4079208 C31.0873801,31.429703 32.2071426,28.5148515 34.3066973,26.360396 C36.826163,23.6356436 38.2258661,20.2138614 38.2258661,16.6653465 C38.2258661,8.42772277 30.8074395,1.71089109 21.7093691,1.71089109 C17.3003042,1.71089109 13.1711799,3.2950495 10.0218478,6.08316832 C6.87251575,8.87128713 5.19287198,12.6732673 5.19287198,16.6653465 L5.19287198,17.2990099 L0.293910977,23.1287129 C0.153940663,23.2554455 0.153940663,23.4455446 0.22392582,23.6356436 C0.363896134,23.8257426 0.503866448,23.8891089 0.71382192,23.8891089 Z M6.03269386,17.7425743 C6.10267902,17.6792079 6.10267902,17.5524752 6.10267902,17.4891089 L6.10267902,16.7287129 C6.10267902,12.990099 7.71233763,9.44158416 10.6517142,6.84356436 C13.5910908,4.18217822 17.4402745,2.72475248 21.5693987,2.72475248 C30.1075879,2.72475248 37.0361185,8.9980198 37.0361185,16.7287129 C37.0361185,20.0237624 35.7064005,23.2554455 33.3968903,25.790099 C31.1573653,28.1346535 29.9676176,31.239604 29.9676176,34.4712871 L29.9676176,38.5267327 L17.0903487,38.5267327 L17.0903487,34.5980198 C17.0903487,32.5069307 15.2007494,30.7326733 12.8212541,30.7326733 L6.10267902,30.7326733 L6.10267902,23.4455446 C6.10267902,23.1920792 5.89272355,22.9386139 5.54279776,22.9386139 L1.76359928,22.9386139 L6.03269386,17.7425743 Z" id="Shape"></path>
                                <path d="M21.4294284,27.2475248 C27.938048,27.2475248 33.1869348,22.4316832 33.1869348,16.5386139 C33.1869348,10.6455446 27.8680629,5.82970297 21.3594433,5.82970297 C14.8508237,5.82970297 9.53195172,10.6455446 9.53195172,16.5386139 C9.53195172,22.4316832 14.8508237,27.2475248 21.4294284,27.2475248 Z M21.4294284,6.78019802 C27.3781668,6.78019802 32.2071426,11.1524752 32.2071426,16.5386139 C32.2071426,21.9247525 27.3781668,26.2970297 21.4294284,26.2970297 C15.4806901,26.2970297 10.6517142,21.9247525 10.6517142,16.5386139 C10.6517142,11.1524752 15.4806901,6.78019802 21.4294284,6.78019802 Z" id="Shape"></path>
                                <path d="M24.4387902,9.94851485 L24.8587011,9.06138614 C23.8089238,8.68118812 22.7591464,8.49108911 21.6393839,8.42772277 L21.4294284,8.42772277 L21.4294284,9.37821782 L21.5693987,9.37821782 C22.5491909,9.44158416 23.5289831,9.63168317 24.4387902,9.94851485 Z" id="Path"></path>
                                <path d="M21.4294284,24.649505 C26.3283894,24.649505 30.3875285,21.0376238 30.3875285,16.6019802 C30.3875285,15.7782178 30.2475582,14.8910891 29.9676176,14.1306931 L28.9878254,14.4475248 C29.267766,15.1445545 29.4077363,15.9049505 29.4077363,16.6653465 C29.4077363,20.5940594 25.9084785,23.7623762 21.4994136,23.7623762 C17.1603338,23.7623762 13.5910908,20.5940594 13.5910908,16.6653465 C13.5910908,13.3069307 16.1805416,10.3920792 19.7497847,9.6950495 L19.5398292,8.74455446 C15.4806901,9.56831683 12.5413135,12.8633663 12.5413135,16.6653465 C12.4713283,20.9742574 16.4604823,24.649505 21.4294284,24.649505 Z" id="Path"></path>
                                <path d="M27.7280926,12.8 L28.6378996,12.2930693 C28.0780184,11.5326733 27.4481519,10.8990099 26.6783152,10.3920792 L26.0484488,11.1524752 C26.6783152,11.5960396 27.3081816,12.1663366 27.7280926,12.8 Z" id="Path"></path>
                                <path d="M18.2800964,21.1643564 C18.7000073,21.4178218 19.1199182,21.5445545 19.5398292,21.6712871 L19.889755,20.7841584 C19.5398292,20.6574257 19.1899034,20.5306931 18.8399776,20.3405941 L18.2800964,21.1643564 Z" id="Path"></path>
                                <path d="M15.3407198,16.5386139 C15.3407198,17.0455446 15.4107049,17.6158416 15.6206604,18.1227723 L16.6004526,17.8693069 C16.4604823,17.4257426 16.3904971,16.9821782 16.3904971,16.5386139 C16.3904971,14.0673267 18.6300221,12.039604 21.3594433,12.039604 C24.0888644,12.039604 26.3283894,14.0673267 26.3283894,16.5386139 C26.3283894,19.009901 24.0888644,21.0376238 21.3594433,21.0376238 L21.3594433,21.9881188 C24.6487457,21.9881188 27.3781668,19.5168317 27.3781668,16.5386139 C27.3781668,13.560396 24.6487457,11.0891089 21.3594433,11.0891089 C18.0701409,11.0891089 15.3407198,13.560396 15.3407198,16.5386139 Z" id="Path"></path>
                                <path d="M16.2505268,19.390099 C16.5304674,19.770297 16.8803932,20.150495 17.230319,20.4673267 L17.9301706,19.770297 C17.6502299,19.5168317 17.3702893,19.2 17.1603338,18.8831683 L16.2505268,19.390099 Z" id="Path"></path>
                                <path d="M24.5087753,16.5386139 C24.5087753,14.9544554 23.1090722,13.6871287 21.3594433,13.6871287 C19.6098143,13.6871287 18.2101112,14.9544554 18.2101112,16.5386139 C18.2101112,18.1227723 19.6098143,19.390099 21.3594433,19.390099 C23.1090722,19.390099 24.5087753,18.1227723 24.5087753,16.5386139 Z M19.3298737,16.5386139 C19.3298737,15.5247525 20.2396808,14.6376238 21.4294284,14.6376238 C22.5491909,14.6376238 23.5289831,15.4613861 23.5289831,16.5386139 C23.5289831,17.5524752 22.6191761,18.439604 21.4294284,18.439604 C20.2396808,18.439604 19.3298737,17.5524752 19.3298737,16.5386139 Z" id="Shape"></path>
                            </g>
                        </g>
                    </g>
                </g>
            </g>
        </g>
    </g>
</svg>