<?xml version="1.0" encoding="UTF-8"?>
<svg width="137px" height="22px" viewBox="0 0 137 22" version="1.1" xmlns="http://www.w3.org/2000/svg" xmlns:xlink="http://www.w3.org/1999/xlink">
    <!-- Generator: sketchtool 62 (101010) - https://sketch.com -->
    <title>E335375C-D1E9-484D-A906-3C0712788355</title>
    <desc>Created with sketchtool.</desc>
    <g id="onepage_site" stroke="none" stroke-width="1" fill="none" fill-rule="evenodd" opacity="0.697777158">
        <g id="A_WHITE" transform="translate(-1064.000000, -2731.000000)" fill="#000000" fill-rule="nonzero">
            <g id="SECTION_04" transform="translate(0.000000, 1860.000000)">
                <g id="sponsor" transform="translate(244.000000, 837.000000)">
                    <g id="cncf-white" transform="translate(820.000000, 34.000000)">
                        <g id="XMLID_1_" transform="translate(27.000000, 1.000000)">
                            <g id="XMLID_575_">
                                <path d="M5.5,8.33333333 C6.62037037,8.33333333 7.50308642,7.9 8.21604938,7.03333333 L9.67592593,8.5 C8.52160494,9.76666667 7.19753086,10.4 5.63580247,10.4 C4.07407407,10.4 2.81790123,9.93333333 1.79938272,8.96666667 C0.780864198,8 0.305555556,6.8 0.305555556,5.33333333 C0.305555556,3.86666667 0.814814815,2.63333333 1.83333333,1.66666667 C2.85185185,0.7 4.10802469,0.2 5.60185185,0.2 C7.2654321,0.2 8.65740741,0.833333333 9.74382716,2.06666667 L8.35185185,3.63333333 C7.63888889,2.76666667 6.75617284,2.33333333 5.7037037,2.33333333 C4.85493827,2.33333333 4.14197531,2.6 3.5308642,3.13333333 C2.91975309,3.66666667 2.61419753,4.4 2.61419753,5.33333333 C2.61419753,6.26666667 2.88580247,7 3.46296296,7.56666667 C4.00617284,8.03333333 4.68518519,8.33333333 5.5,8.33333333 Z" id="XMLID_643_"></path>
                                <polygon id="XMLID_641_" points="11.441358 10.2666667 11.441358 0.366666667 13.6820988 0.366666667 13.6820988 8.3 17.9938272 8.3 17.9938272 10.2666667"></polygon>
                                <path d="M27.8395062,8.9 C26.8209877,9.86666667 25.5648148,10.3666667 24.0709877,10.3666667 C22.5771605,10.3666667 21.3209877,9.86666667 20.3024691,8.9 C19.2839506,7.93333333 18.7746914,6.7 18.7746914,5.26666667 C18.7746914,3.8 19.2839506,2.6 20.3024691,1.63333333 C21.3209877,0.666666667 22.5771605,0.166666667 24.0709877,0.166666667 C25.5648148,0.166666667 26.8209877,0.666666667 27.8395062,1.63333333 C28.8580247,2.6 29.367284,3.83333333 29.367284,5.26666667 C29.367284,6.73333333 28.8580247,7.93333333 27.8395062,8.9 Z M27.058642,5.26666667 C27.058642,4.4 26.7530864,3.63333333 26.1759259,3 C25.5987654,2.36666667 24.8858025,2.06666667 24.037037,2.06666667 C23.1882716,2.06666667 22.4753086,2.36666667 21.8981481,3 C21.3209877,3.63333333 21.0154321,4.36666667 21.0154321,5.26666667 C21.0154321,6.13333333 21.3209877,6.9 21.8981481,7.53333333 C22.4753086,8.16666667 23.1882716,8.46666667 24.037037,8.46666667 C24.8858025,8.46666667 25.5987654,8.16666667 26.1759259,7.53333333 C26.787037,6.9 27.058642,6.16666667 27.058642,5.26666667 Z" id="XMLID_638_"></path>
                                <path d="M33.9506173,7.73333333 C34.3240741,8.2 34.8333333,8.43333333 35.4783951,8.43333333 C36.1234568,8.43333333 36.632716,8.2 36.9722222,7.73333333 C37.345679,7.26666667 37.5154321,6.63333333 37.5154321,5.86666667 L37.5154321,0.4 L39.7561728,0.4 L39.7561728,5.93333333 C39.7561728,7.36666667 39.3487654,8.46666667 38.5339506,9.23333333 C37.7191358,10 36.7006173,10.4 35.4444444,10.4 C34.1882716,10.4 33.1358025,10 32.3209877,9.23333333 C31.5061728,8.46666667 31.0987654,7.36666667 31.0987654,5.93333333 L31.0987654,0.4 L33.3395062,0.4 L33.3395062,5.86666667 C33.3734568,6.63333333 33.5771605,7.26666667 33.9506173,7.73333333 Z" id="XMLID_636_"></path>
                                <path d="M49.8055556,1.66666667 C50.7561728,2.53333333 51.2654321,3.73333333 51.2654321,5.26666667 C51.2654321,6.8 50.7901235,8.03333333 49.8734568,8.93333333 C48.9228395,9.83333333 47.4969136,10.2666667 45.595679,10.2666667 L42.0987654,10.2666667 L42.0987654,0.366666667 L45.6635802,0.366666667 C47.462963,0.366666667 48.8549383,0.8 49.8055556,1.66666667 Z M48.1759259,7.56666667 C48.7191358,7.06666667 48.9907407,6.3 48.9907407,5.33333333 C48.9907407,4.36666667 48.7191358,3.6 48.1759259,3.1 C47.632716,2.56666667 46.7839506,2.3 45.6296296,2.3 L44.3734568,2.3 L44.3734568,8.33333333 L45.7993827,8.33333333 C46.8179012,8.33333333 47.5987654,8.06666667 48.1759259,7.56666667 Z" id="XMLID_633_"></path>
                                <polygon id="XMLID_631_" points="64.0648148 0.366666667 66.3055556 0.366666667 66.3055556 10.2666667 64.0648148 10.2666667 59.2438272 4.06666667 59.2438272 10.2666667 57.0030864 10.2666667 57.0030864 0.366666667 59.1080247 0.366666667 64.0648148 6.73333333 64.0648148 0.366666667"></polygon>
                                <path d="M75.9814815,10.2666667 L75.0308642,8.13333333 L70.787037,8.13333333 L69.8364198,10.2666667 L67.4259259,10.2666667 L71.7716049,0.366666667 L73.9444444,0.366666667 L78.2901235,10.2666667 L75.9814815,10.2666667 Z M72.9598765,3.33333333 L71.7037037,6.2 L74.2160494,6.2 L72.9598765,3.33333333 Z" id="XMLID_628_"></path>
                                <polygon id="XMLID_626_" points="83.1111111 2.3 83.1111111 10.3 80.8703704 10.3 80.8703704 2.3 78.0185185 2.3 78.0185185 0.4 85.9969136 0.4 85.9969136 2.3"></polygon>
                                <polygon id="XMLID_624_" points="87.5925926 0.366666667 89.8333333 0.366666667 89.8333333 10.2666667 87.5925926 10.2666667"></polygon>
                                <polygon id="XMLID_622_" points="96.0462963 6.66666667 98.6265432 0.366666667 101.070988 0.366666667 97.0308642 10.2666667 95.1296296 10.2666667 91.0895062 0.366666667 93.5339506 0.366666667"></polygon>
                                <polygon id="XMLID_620_" points="109.524691 0.366666667 109.524691 2.33333333 104.5 2.33333333 104.5 4.36666667 109.015432 4.36666667 109.015432 6.26666667 104.5 6.26666667 104.5 8.33333333 109.694444 8.33333333 109.694444 10.3 102.259259 10.3 102.259259 0.4 109.524691 0.4"></polygon>
                                <path d="M2.91975309,18.7 C3.5308642,18.7 4.04012346,18.4666667 4.44753086,17.9666667 L5.26234568,18.8 C4.61728395,19.5 3.87037037,19.8666667 2.98765432,19.8666667 C2.10493827,19.8666667 1.39197531,19.6 0.848765432,19.0666667 C0.271604938,18.5333333 0,17.8333333 0,17.0333333 C0,16.2 0.271604938,15.5333333 0.848765432,14.9666667 C1.42592593,14.4 2.13888889,14.1333333 2.9537037,14.1333333 C3.87037037,14.1333333 4.65123457,14.4666667 5.2962963,15.1666667 L4.5154321,16.0333333 C4.10802469,15.5333333 3.63271605,15.3 3.02160494,15.3 C2.5462963,15.3 2.13888889,15.4666667 1.79938272,15.7666667 C1.45987654,16.0666667 1.29012346,16.4666667 1.29012346,17 C1.29012346,17.5333333 1.45987654,17.9333333 1.7654321,18.2333333 C2.07098765,18.5666667 2.47839506,18.7 2.91975309,18.7 Z" id="XMLID_618_"></path>
                                <path d="M10.8641975,19.0333333 C10.287037,19.5666667 9.57407407,19.8666667 8.75925926,19.8666667 C7.91049383,19.8666667 7.23148148,19.6 6.65432099,19.0333333 C6.07716049,18.5 5.80555556,17.8 5.80555556,17 C5.80555556,16.2 6.07716049,15.5 6.65432099,14.9666667 C7.23148148,14.4333333 7.94444444,14.1333333 8.75925926,14.1333333 C9.60802469,14.1333333 10.287037,14.4 10.8641975,14.9666667 C11.441358,15.5 11.712963,16.2 11.712963,17 C11.712963,17.8 11.441358,18.5 10.8641975,19.0333333 Z M10.4567901,17 C10.4567901,16.5 10.287037,16.0666667 9.98148148,15.7333333 C9.64197531,15.4 9.26851852,15.2 8.79320988,15.2 C8.31790123,15.2 7.91049383,15.3666667 7.60493827,15.7333333 C7.2654321,16.0666667 7.12962963,16.5 7.12962963,17 C7.12962963,17.5 7.29938272,17.9 7.60493827,18.2666667 C7.94444444,18.6 8.31790123,18.8 8.79320988,18.8 C9.26851852,18.8 9.67592593,18.6333333 9.98148148,18.2666667 C10.287037,17.9333333 10.4567901,17.5 10.4567901,17 Z" id="XMLID_615_"></path>
                                <polygon id="XMLID_613_" points="17.8580247 16.3 16.3302469 19.3333333 15.5833333 19.3333333 14.0555556 16.3 14.0555556 19.8 12.7993827 19.8 12.7993827 14.2333333 14.4969136 14.2333333 15.9567901 17.2666667 17.4166667 14.2333333 19.1141975 14.2333333 19.1141975 19.8 17.8580247 19.8"></polygon>
                                <path d="M24.4104938,14.7666667 C24.8179012,15.1 25.0216049,15.6 25.0216049,16.3 C25.0216049,17 24.8179012,17.5 24.4104938,17.8 C24.0030864,18.1333333 23.3919753,18.2666667 22.5432099,18.2666667 L21.7962963,18.2666667 L21.7962963,19.8 L20.5401235,19.8 L20.5401235,14.2333333 L22.5432099,14.2333333 C23.3919753,14.2666667 24.0030864,14.4333333 24.4104938,14.7666667 Z M23.4938272,16.9333333 C23.6296296,16.7666667 23.7314815,16.5333333 23.7314815,16.2 C23.7314815,15.8666667 23.6296296,15.6666667 23.4259259,15.5333333 C23.2222222,15.4 22.9166667,15.3333333 22.5092593,15.3333333 L21.7962963,15.3333333 L21.7962963,17.2 L22.6450617,17.2 C23.0524691,17.2 23.3240741,17.1 23.4938272,16.9333333 Z" id="XMLID_610_"></path>
                                <path d="M27.5,18.3666667 C27.7037037,18.6333333 28.0092593,18.7666667 28.3487654,18.7666667 C28.6882716,18.7666667 28.9938272,18.6333333 29.1975309,18.3666667 C29.4012346,18.1 29.5030864,17.7666667 29.5030864,17.3 L29.5030864,14.2333333 L30.7592593,14.2333333 L30.7592593,17.3333333 C30.7592593,18.1333333 30.5216049,18.7666667 30.0802469,19.2 C29.6388889,19.6333333 29.0617284,19.8333333 28.3487654,19.8333333 C27.6358025,19.8333333 27.058642,19.6 26.617284,19.1666667 C26.1759259,18.7333333 25.9382716,18.1 25.9382716,17.3 L25.9382716,14.2 L27.1944444,14.2 L27.1944444,17.2666667 C27.1944444,17.7666667 27.2962963,18.1333333 27.5,18.3666667 Z" id="XMLID_608_"></path>
                                <polygon id="XMLID_606_" points="34.4598765 15.3333333 34.4598765 19.8 33.2037037 19.8 33.2037037 15.3333333 31.6080247 15.3333333 31.6080247 14.2666667 36.0895062 14.2666667 36.0895062 15.3333333"></polygon>
                                <polygon id="XMLID_604_" points="37.0061728 14.2666667 38.2623457 14.2666667 38.2623457 19.8333333 37.0061728 19.8333333"></polygon>
                                <polygon id="XMLID_602_" points="43.5925926 14.2666667 44.8487654 14.2666667 44.8487654 19.8333333 43.5925926 19.8333333 40.9104938 16.3666667 40.9104938 19.8333333 39.654321 19.8333333 39.654321 14.2666667 40.8425926 14.2666667 43.6265432 17.8333333 43.6265432 14.2666667"></polygon>
                                <path d="M49.941358,17 L51.1975309,17 L51.1975309,18.9666667 C50.6203704,19.5666667 49.8734568,19.9 48.8549383,19.9 C48.0401235,19.9 47.3271605,19.6333333 46.75,19.1 C46.1728395,18.5666667 45.9012346,17.8666667 45.9012346,17.0666667 C45.9012346,16.2333333 46.1728395,15.5666667 46.75,15 C47.3271605,14.4333333 48.0061728,14.1666667 48.8209877,14.1666667 C49.6358025,14.1666667 50.3487654,14.4333333 50.9259259,14.9666667 L50.2808642,15.9 C50.0432099,15.6666667 49.8055556,15.5333333 49.5679012,15.4666667 C49.3641975,15.4 49.1265432,15.3333333 48.8888889,15.3333333 C48.4135802,15.3333333 48.0061728,15.5 47.6666667,15.8 C47.3271605,16.1333333 47.1574074,16.5333333 47.1574074,17.0666667 C47.1574074,17.6 47.3271605,18 47.632716,18.3333333 C47.9382716,18.6333333 48.3117284,18.8 48.7530864,18.8 C49.1944444,18.8 49.5679012,18.7333333 49.8395062,18.5666667 L49.8395062,17 L49.941358,17 Z" id="XMLID_600_"></path>
                                <polygon id="XMLID_598_" points="58.3271605 14.2666667 58.3271605 15.3666667 55.712963 15.3666667 55.712963 16.5666667 58.191358 16.5666667 58.191358 17.6666667 55.712963 17.6666667 55.712963 19.8333333 54.4567901 19.8333333 54.4567901 14.2666667"></polygon>
                                <path d="M64.1666667,19.0333333 C63.5895062,19.5666667 62.8765432,19.8666667 62.0617284,19.8666667 C61.212963,19.8666667 60.5339506,19.6 59.9567901,19.0333333 C59.3796296,18.5 59.1080247,17.8 59.1080247,17 C59.1080247,16.2 59.3796296,15.5 59.9567901,14.9666667 C60.5339506,14.4333333 61.2469136,14.1333333 62.0617284,14.1333333 C62.9104938,14.1333333 63.5895062,14.4 64.1666667,14.9666667 C64.7438272,15.5 65.0154321,16.2 65.0154321,17 C65.0154321,17.8 64.7438272,18.5 64.1666667,19.0333333 Z M63.7253086,17 C63.7253086,16.5 63.5555556,16.0666667 63.25,15.7333333 C62.9104938,15.4 62.537037,15.2 62.0617284,15.2 C61.5864198,15.2 61.1790123,15.3666667 60.8734568,15.7333333 C60.5339506,16.0666667 60.3981481,16.5 60.3981481,17 C60.3981481,17.5 60.5679012,17.9 60.8734568,18.2666667 C61.212963,18.6 61.5864198,18.8 62.0617284,18.8 C62.537037,18.8 62.9444444,18.6333333 63.25,18.2666667 C63.5895062,17.9333333 63.7253086,17.5 63.7253086,17 Z" id="XMLID_595_"></path>
                                <path d="M67.595679,18.3666667 C67.7993827,18.6333333 68.1049383,18.7666667 68.4444444,18.7666667 C68.7839506,18.7666667 69.0895062,18.6333333 69.2932099,18.3666667 C69.4969136,18.1 69.5987654,17.7666667 69.5987654,17.3 L69.5987654,14.2333333 L70.8549383,14.2333333 L70.8549383,17.3333333 C70.8549383,18.1333333 70.617284,18.7666667 70.1759259,19.2 C69.7345679,19.6333333 69.1574074,19.8333333 68.4444444,19.8333333 C67.7314815,19.8333333 67.154321,19.6 66.712963,19.1666667 C66.2716049,18.7333333 66.0339506,18.1 66.0339506,17.3 L66.0339506,14.2 L67.2901235,14.2 L67.2901235,17.2666667 C67.2561728,17.7666667 67.3919753,18.1333333 67.595679,18.3666667 Z" id="XMLID_593_"></path>
                                <polygon id="XMLID_591_" points="76.117284 14.2666667 77.3734568 14.2666667 77.3734568 19.8333333 76.117284 19.8333333 73.4351852 16.3666667 73.4351852 19.8333333 72.1790123 19.8333333 72.1790123 14.2666667 73.367284 14.2666667 76.1512346 17.8333333 76.1512346 14.2666667"></polygon>
                                <path d="M83.0771605,15 C83.6203704,15.5 83.8919753,16.1666667 83.8919753,17.0333333 C83.8919753,17.9 83.6203704,18.5666667 83.1111111,19.0666667 C82.6018519,19.5666667 81.787037,19.8333333 80.7006173,19.8333333 L78.7654321,19.8333333 L78.7654321,14.2666667 L80.7685185,14.2666667 C81.787037,14.2666667 82.5679012,14.5 83.0771605,15 Z M82.1604938,18.3 C82.4660494,18 82.6358025,17.6 82.6358025,17.0666667 C82.6358025,16.5333333 82.4660494,16.1 82.1604938,15.8 C81.8549383,15.5 81.3796296,15.3666667 80.7345679,15.3666667 L80.0216049,15.3666667 L80.0216049,18.7333333 L80.8364198,18.7333333 C81.4135802,18.7 81.8549383,18.5666667 82.1604938,18.3 Z" id="XMLID_588_"></path>
                                <path d="M88.8487654,19.8 L88.3395062,18.6 L85.962963,18.6 L85.4537037,19.8 L84.095679,19.8 L86.5401235,14.2333333 L87.7623457,14.2333333 L90.2067901,19.8 L88.8487654,19.8 Z M87.1512346,15.9 L86.4382716,17.5 L87.8641975,17.5 L87.1512346,15.9 Z" id="XMLID_585_"></path>
                                <polygon id="XMLID_583_" points="92.8549383 15.3333333 92.8549383 19.8 91.5987654 19.8 91.5987654 15.3333333 89.9691358 15.3333333 89.9691358 14.2666667 94.4506173 14.2666667 94.4506173 15.3333333"></polygon>
                                <polygon id="XMLID_581_" points="95.367284 14.2666667 96.6234568 14.2666667 96.6234568 19.8333333 95.367284 19.8333333"></polygon>
                                <path d="M102.768519,19.0333333 C102.191358,19.5666667 101.478395,19.8666667 100.66358,19.8666667 C99.8148148,19.8666667 99.1358025,19.6 98.558642,19.0333333 C97.9814815,18.5 97.7098765,17.8 97.7098765,17 C97.7098765,16.2 97.9814815,15.5 98.558642,14.9666667 C99.1358025,14.4333333 99.8487654,14.1333333 100.66358,14.1333333 C101.512346,14.1333333 102.191358,14.4 102.768519,14.9666667 C103.345679,15.5 103.617284,16.2 103.617284,17 C103.617284,17.8 103.345679,18.5 102.768519,19.0333333 Z M102.361111,17 C102.361111,16.5 102.191358,16.0666667 101.885802,15.7333333 C101.546296,15.4 101.17284,15.2 100.697531,15.2 C100.222222,15.2 99.8148148,15.3666667 99.5092593,15.7333333 C99.1697531,16.0666667 99.0339506,16.5 99.0339506,17 C99.0339506,17.5 99.2037037,17.9 99.5092593,18.2666667 C99.8487654,18.6 100.222222,18.8 100.697531,18.8 C101.17284,18.8 101.580247,18.6333333 101.885802,18.2666667 C102.191358,17.9333333 102.361111,17.5 102.361111,17 Z" id="XMLID_578_"></path>
                                <polygon id="XMLID_576_" points="108.641975 14.2666667 109.898148 14.2666667 109.898148 19.8333333 108.641975 19.8333333 105.959877 16.3666667 105.959877 19.8333333 104.703704 19.8333333 104.703704 14.2666667 105.891975 14.2666667 108.675926 17.8333333"></polygon>
                            </g>
                        </g>
                        <g id="XMLID_197_" transform="translate(0.000000, 0.000000)">
                            <g id="XMLID_392_">
                                <polygon id="XMLID_397_" points="3.21538462 14.4523077 0.135384615 14.4523077 0.135384615 21.6953846 7.34461538 21.6953846 7.34461538 18.5815385 3.21538462 18.5815385"></polygon>
                                <polygon id="XMLID_395_" points="18.7169231 14.4861538 18.7169231 18.5815385 14.5876923 18.5815385 14.5876923 18.5476923 14.5876923 21.6953846 21.7969231 21.6953846 21.7969231 14.4523077 18.6830769 14.4523077"></polygon>
                                <polygon id="XMLID_394_" points="0.135384615 7.24307692 3.24923077 7.24307692 3.21538462 7.20923077 3.21538462 3.11384615 3.21538462 3.11384615 7.34461538 3.11384615 7.34461538 3.11384615 7.34461538 0 0.135384615 0"></polygon>
                                <polygon id="XMLID_393_" points="14.5876923 0 14.5876923 3.11384615 18.7169231 3.11384615 18.7169231 7.24307692 21.7969231 7.24307692 21.7969231 0"></polygon>
                            </g>
                            <g id="XMLID_200_" opacity="0.8">
                                <polygon id="XMLID_391_" points="14.1815385 7.24307692 10.0523077 3.11384615 14.5876923 3.11384615 14.5876923 0 7.34461538 0 7.34461538 3.11384615 11.4738462 7.24307692"></polygon>
                                <polygon id="XMLID_390_" points="10.4584615 14.4523077 7.75076923 14.4523077 11.1692308 17.8707692 11.8461538 18.5815385 10.4584615 18.5815385 7.34461538 18.5815385 7.34461538 21.6953846 14.5876923 21.6953846 14.5876923 18.5476923 12.5230769 16.5169231"></polygon>
                                <polygon id="XMLID_389_" points="18.7169231 7.24307692 18.7169231 10.3230769 18.7169231 11.7446154 18.0061538 11.0338462 14.5876923 7.61538462 14.5876923 10.3569231 16.6184615 12.3876923 18.6830769 14.4523077 21.7969231 14.4523077 21.7969231 7.24307692"></polygon>
                                <polygon id="XMLID_388_" points="7.34461538 11.3384615 3.24923077 7.24307692 0.135384615 7.24307692 0.135384615 14.4523077 3.21538462 14.4523077 3.21538462 9.95076923 7.34461538 14.08"></polygon>
                            </g>
                        </g>
                    </g>
                </g>
            </g>
        </g>
    </g>
</svg>