<?xml version="1.0" encoding="UTF-8"?>
<svg width="136px" height="27px" viewBox="0 0 136 27" version="1.1" xmlns="http://www.w3.org/2000/svg" xmlns:xlink="http://www.w3.org/1999/xlink">
    <!-- Generator: sketchtool 62 (101010) - https://sketch.com -->
    <title>0BF87076-3FC4-4BDC-8C4F-4D8561C4F0DD</title>
    <desc>Created with sketchtool.</desc>
    <g id="onepage_site" stroke="none" stroke-width="1" fill="none" fill-rule="evenodd" opacity="0.688895089">
        <g id="A_WHITE" transform="translate(-448.000000, -2727.000000)" fill="#000000" fill-rule="nonzero">
            <g id="SECTION_04" transform="translate(0.000000, 1860.000000)">
                <g id="sponsor" transform="translate(244.000000, 837.000000)">
                    <g id="confluent" transform="translate(204.000000, 30.000000)">
                        <g>
                            <path d="M3.64285714,13.6037681 C3.64285714,14.2664348 3.23505952,14.8037681 2.73214286,14.8037681 L0.910714286,14.8037681 C0.407797619,14.8037681 0,14.2664348 0,13.6037681 C0,12.9411015 0.407797619,12.4037681 0.910714286,12.4037681 L2.73214286,12.4037681 C3.23505952,12.4037681 3.64285714,12.9411015 3.64285714,13.6037681" id="Fill-1"></path>
                            <path d="M13.9642857,13.6037681 C13.9642857,14.2664348 13.4672824,14.8037681 12.8543527,14.8037681 L7.18136161,14.8037681 C6.56843192,14.8037681 6.07142857,14.2664348 6.07142857,13.6037681 C6.07142857,12.9411015 6.56843192,12.4037681 7.18136161,12.4037681 L12.8543527,12.4037681 C13.4672824,12.4037681 13.9642857,12.9411015 13.9642857,13.6037681" id="Fill-3"></path>
                            <path d="M6.07142857,8.20376812 C6.07142857,8.86643476 5.66363095,9.40376812 5.16071429,9.40376812 L3.33928571,9.40376812 C2.83636905,9.40376812 2.42857143,8.86643476 2.42857143,8.20376812 C2.42857143,7.54110145 2.83636905,7.00376812 3.33928571,7.00376812 L5.16071429,7.00376812 C5.66363095,7.00376812 6.07142857,7.54110145 6.07142857,8.20376812" id="Fill-5"></path>
                            <path d="M16.3928571,8.20376812 C16.3928571,8.86643476 15.8958538,9.40376812 15.2829241,9.40376812 L9.60993304,9.40376812 C8.99700335,9.40376812 8.5,8.86643476 8.5,8.20376812 C8.5,7.54110145 8.99700335,7.00376812 9.60993304,7.00376812 L15.2829241,7.00376812 C15.8958538,7.00376812 16.3928571,7.54110145 16.3928571,8.20376812" id="Fill-7"></path>
                            <path d="M6.07142857,19.0037681 C6.07142857,19.6664348 5.66363095,20.2037681 5.16071429,20.2037681 L3.33928571,20.2037681 C2.83636905,20.2037681 2.42857143,19.6664348 2.42857143,19.0037681 C2.42857143,18.3411015 2.83636905,17.8037681 3.33928571,17.8037681 L5.16071429,17.8037681 C5.66363095,17.8037681 6.07142857,18.3411015 6.07142857,19.0037681" id="Fill-9"></path>
                            <path d="M16.3928571,19.0037681 C16.3928571,19.6664348 15.8958538,20.2037681 15.2829241,20.2037681 L9.60993304,20.2037681 C8.99700335,20.2037681 8.5,19.6664348 8.5,19.0037681 C8.5,18.3411015 8.99700335,17.8037681 9.60993304,17.8037681 L15.2829241,17.8037681 C15.8958538,17.8037681 16.3928571,18.3411015 16.3928571,19.0037681" id="Fill-11"></path>
                            <path d="M17,1.30376812 C17,1.79876812 16.5491964,2.20376812 15.9982143,2.20376812 L11.3232143,2.20376812 C10.7722321,2.20376812 10.3214286,1.79876812 10.3214286,1.30376812 C10.3214286,0.808768116 10.7722321,0.403768116 11.3232143,0.403768116 L15.9982143,0.403768116 C16.5491964,0.403768116 17,0.808768116 17,1.30376812" id="Fill-13"></path>
                            <path d="M23.0714286,1.30376812 C23.0714286,1.79876812 22.6411161,2.20376812 22.1151786,2.20376812 L19.7776786,2.20376812 C19.2517411,2.20376812 18.8214286,1.79876812 18.8214286,1.30376812 C18.8214286,0.808768116 19.2517411,0.403768116 19.7776786,0.403768116 L22.1151786,0.403768116 C22.6411161,0.403768116 23.0714286,0.808768116 23.0714286,1.30376812" id="Fill-15"></path>
                            <path d="M17,25.9037681 C17,26.3987681 16.5491964,26.8037681 15.9982143,26.8037681 L11.3232143,26.8037681 C10.7722321,26.8037681 10.3214286,26.3987681 10.3214286,25.9037681 C10.3214286,25.4087681 10.7722321,25.0037681 11.3232143,25.0037681 L15.9982143,25.0037681 C16.5491964,25.0037681 17,25.4087681 17,25.9037681" id="Fill-17"></path>
                            <path d="M23.0714286,25.9037681 C23.0714286,26.3987681 22.6411161,26.8037681 22.1151786,26.8037681 L19.7776786,26.8037681 C19.2517411,26.8037681 18.8214286,26.3987681 18.8214286,25.9037681 C18.8214286,25.4087681 19.2517411,25.0037681 19.7776786,25.0037681 L22.1151786,25.0037681 C22.6411161,25.0037681 23.0714286,25.4087681 23.0714286,25.9037681" id="Fill-19"></path>
                            <path d="M39.4642857,9.91805385 C36.7190285,9.91805385 34.4857143,11.8407477 34.4857143,14.2037681 C34.4857143,16.5667885 36.7190285,18.4894824 39.4642857,18.4894824 C42.2095429,18.4894824 44.4428572,16.5667885 44.4428572,14.2037681 C44.4428572,11.8407477 42.2095429,9.91805385 39.4642857,9.91805385 M39.4642857,20.2037681 C35.7816,20.2037681 32.7857143,17.5123395 32.7857143,14.2037681 C32.7857143,10.8951967 35.7816,8.20376812 39.4642857,8.20376812 C43.1469714,8.20376812 46.1428571,10.8951967 46.1428571,14.2037681 C46.1428571,17.5123395 43.1469714,20.2037681 39.4642857,20.2037681" id="Fill-21"></path>
                            <path d="M25.0290459,20.2037681 C21.2712632,20.2037681 18.2142857,17.5123395 18.2142857,14.2037681 C18.2142857,10.8951967 21.2712632,8.20376812 25.0290459,8.20376812 C26.9614641,8.20376812 28.8098749,8.92915585 30.1004666,10.193564 C30.4407089,10.5268702 30.4429392,11.069564 30.1056706,11.405564 C29.7684019,11.7418089 29.2192561,11.7442579 28.8792616,11.4109518 C27.9108222,10.4622171 26.5074772,9.91805385 25.0290459,9.91805385 C22.2278078,9.91805385 19.948952,11.8407477 19.948952,14.2037681 C19.948952,16.5667885 22.2278078,18.4894824 25.0290459,18.4894824 C26.5074772,18.4894824 27.9105744,17.9453191 28.8790137,16.9968293 C29.2192561,16.6637681 29.7684019,16.6662171 30.1056706,17.0022171 C30.4429392,17.338462 30.4404612,17.8811558 30.1002188,18.2142171 C28.8096271,19.4786252 26.9612163,20.2037681 25.0290459,20.2037681" id="Fill-23"></path>
                            <path d="M49.4130393,20.2037681 C48.9482297,20.2037681 48.5714286,19.8286149 48.5714286,19.3658382 L48.5714286,8.85676051 L49.3339279,8.70090551 C49.568617,8.6436869 55.1811986,7.32598222 58.1090419,9.23023784 C60.1471826,10.555843 60.1582438,12.321481 60.087308,18.8913304 L60.0983692,19.254992 C60.09356,19.7177688 59.7206062,20.0843032 59.2553157,20.0840638 C58.7907466,20.0790362 58.4216402,19.7000525 58.4264494,19.2372758 L58.4324609,18.8731354 C58.4997898,12.6317545 58.3543114,11.4311206 57.1274834,10.6329325 C55.4449834,9.53859604 51.9378714,9.86634637 50.25465,10.1933784 L50.25465,19.3658382 C50.25465,19.8286149 49.8778488,20.2037681 49.4130393,20.2037681" id="Fill-25"></path>
                            <path d="M75.5892857,19.6037681 C75.0860511,19.6037681 74.6785714,19.2358638 74.6785714,18.782029 L74.6785714,4.22550725 C74.6785714,3.77167246 75.0860511,3.40376812 75.5892857,3.40376812 C76.0925203,3.40376812 76.5,3.77167246 76.5,4.22550725 L76.5,18.782029 C76.5,19.2358638 76.0925203,19.6037681 75.5892857,19.6037681" id="Fill-27"></path>
                            <path d="M88.610247,20.2037681 C86.9863163,20.2037681 85.2428981,19.9618173 83.9801737,19.1447698 C81.8970022,17.7961226 81.9142142,16.2581655 81.9863056,9.78604276 L81.9942883,9.05969595 C81.9992772,8.58197282 82.3929124,8.19742182 82.8765995,8.20376812 C83.3587896,8.20903742 83.7454396,8.60050842 83.7404507,9.07798442 L83.7322183,9.80507256 C83.6626213,16.0691028 83.6002586,16.9130886 84.8108476,17.6962778 C86.5632461,18.8301596 89.7582242,18.4881168 91.7538376,18.1492868 L91.7538376,9.20946329 C91.7538376,8.73174015 92.1444796,8.34447055 92.6269188,8.34447055 C93.1091089,8.34447055 93.5,8.73174015 93.5,9.20946329 L93.5,19.5315452 L92.9561949,19.6914452 C92.8125108,19.7255507 90.891733,20.2037681 88.610247,20.2037681" id="Fill-29"></path>
                            <path d="M114.377324,20.2037681 C113.912275,20.2037681 113.535714,19.8286149 113.535714,19.3658382 L113.535714,8.85676051 L114.298213,8.70090551 C114.532901,8.6436869 120.145476,7.32598222 123.073316,9.23023784 C125.111694,10.555843 125.122515,12.321481 125.05158,18.8913304 L125.062881,19.254992 C125.057831,19.7177688 124.683435,20.0843032 124.219829,20.0840638 C123.754779,20.0790362 123.385913,19.7000525 123.390723,19.2372758 L123.396735,18.8731354 C123.464063,12.6317545 123.318825,11.4311206 122.091758,10.6329325 C120.409261,9.53859604 116.902153,9.86634637 115.218934,10.1933784 L115.218934,19.3658382 C115.218934,19.8286149 114.842373,20.2037681 114.377324,20.2037681" id="Fill-31"></path>
                            <path d="M104.859175,20.2037681 C102.461335,20.2037681 99.9176012,19.7991319 98.277274,18.4027402 C97.1215278,17.4194147 96.5357143,16.0736026 96.5357143,14.4027426 C96.5357143,12.3354284 97.3048887,10.6650643 98.7601173,9.57239771 C100.80761,8.03468091 103.809128,7.95038171 105.87523,8.54841024 C109.531786,9.60686124 109.986592,13.0524676 109.716388,14.7267987 L109.598779,15.4564828 L101.25001,15.4564828 C100.770392,15.4564828 100.381587,15.0677146 100.381587,14.5886967 C100.381587,14.1094309 100.770392,13.7209107 101.25001,13.7209107 L108.04058,13.7209107 C108.013535,12.7291553 107.629196,10.8629195 105.391642,10.2153032 C103.793992,9.75289724 101.363401,9.78835244 99.8034651,10.9598636 C98.7876591,11.7227714 98.2725602,12.8811418 98.2725602,14.4027426 C98.2725602,15.5578898 98.6422599,16.4341057 99.4032464,17.081474 C101.692906,19.0307694 106.797743,18.4587744 108.886176,18.1223214 C109.360087,18.0462042 109.805712,18.3680288 109.881637,18.8410961 C109.958058,19.3141635 109.635997,19.7594616 109.162583,19.8358268 C108.003858,20.0225248 106.464269,20.2037681 104.859175,20.2037681" id="Fill-33"></path>
                            <path d="M70.4077848,1.60397549 C70.2979605,1.1694122 69.7777957,0.913992557 69.3777517,1.03295513 C69.177193,1.09290294 64.3571429,2.5433133 64.3571429,6.2911009 L64.3571429,10.72304 L64.3571429,18.1873583 C64.3571429,18.6380165 64.6932656,19.0037681 65.1078963,19.0037681 C65.5225263,19.0037681 65.8586491,18.6380165 65.8586491,18.1873583 L65.8586491,10.72304 C65.8586491,10.149687 66.0926698,9.72841948 66.3429924,9.4716003 C66.6332122,9.17349407 67.1713951,9.04263523 67.8365627,9.08532184 C67.8884716,9.08858749 67.9538942,9.09022029 67.9768461,9.09022029 C68.3914761,9.09022029 68.7473334,8.72470194 68.7473334,8.27381049 C68.7473334,7.82291897 68.4240802,7.45763391 68.0094502,7.45763391 L67.8657347,7.45530131 C67.1188421,7.40818277 66.2876514,7.52737864 65.8586491,7.80192557 L65.8586491,6.2911009 C65.8586491,3.79242033 69.7203096,2.6242545 69.7760799,2.60722653 C70.1754804,2.48756417 70.5176096,2.03853877 70.4077848,1.60397549" id="Fill-35"></path>
                            <path d="M135.243314,17.3096505 C131.997349,17.3096505 131.441942,16.2629278 131.441942,15.1314992 L131.441942,10.5331799 C131.441942,9.88384878 131.684946,9.4087698 131.9513,9.12052775 C132.219167,8.83083366 132.695014,8.69651432 133.258853,8.71611769 C133.291282,8.71732775 133.343601,8.71805384 133.360681,8.71805384 C133.775993,8.71805384 134.122555,8.34341179 134.126446,7.87849751 C134.130122,7.41358324 133.80064,7.03216474 133.385327,7.02393619 L133.252799,7.02296812 C132.514706,6.99223197 131.874334,7.16212775 131.441942,7.39373788 L131.441942,5.45082694 C131.441942,4.98300845 131.103379,4.60376812 130.685257,4.60376812 C130.267134,4.60376812 129.928571,4.98300845 129.928571,5.45082694 L129.928571,15.1314992 C129.928571,19.0037681 133.955652,19.0037681 135.243314,19.0037681 C135.661437,19.0037681 136,18.6245278 136,18.1567093 C136,17.6888908 135.661437,17.3096505 135.243314,17.3096505" id="Fill-37"></path>
                        </g>
                    </g>
                </g>
            </g>
        </g>
    </g>
</svg>