<?xml version="1.0" encoding="UTF-8"?>
<svg width="130px" height="27px" viewBox="0 0 130 27" version="1.1" xmlns="http://www.w3.org/2000/svg" xmlns:xlink="http://www.w3.org/1999/xlink">
    <!-- Generator: sketchtool 62 (101010) - https://sketch.com -->
    <title>C1839F21-98DC-43B8-AE8D-8A2C0DC1472B</title>
    <desc>Created with sketchtool.</desc>
    <g id="onepage_site" stroke="none" stroke-width="1" fill="none" fill-rule="evenodd" opacity="0.602399554">
        <g id="A_WHITE" transform="translate(-856.000000, -2726.000000)" fill="#000000" fill-rule="nonzero">
            <g id="SECTION_04" transform="translate(0.000000, 1860.000000)">
                <g id="sponsor" transform="translate(244.000000, 837.000000)">
                    <g id="lightbend" transform="translate(612.000000, 29.000000)">
                        <g id="Group">
                            <path d="M0,20.0769231 L0,25.9615385 C0,26.5350649 0.474480836,27 1.05978261,27 L30.7336957,27 C31.3189974,27 31.7934783,26.5350649 31.7934783,25.9615385 L31.7934783,20.0769231 C26.6154143,21.4734368 21.2673212,22.1721699 15.8967391,22.1538462 C10.526157,22.1721699 5.17806394,21.4734368 0,20.0769231 L0,20.0769231 Z" id="Path"></path>
                            <path d="M30.7336957,0 L1.05978261,0 C0.474480836,0 0,0.464935067 0,1.03846154 L0,18 C5.14701087,19.4538462 10.4741848,20.4230769 15.8967391,20.4230769 C21.3192935,20.4230769 26.6464674,19.4538462 31.7934783,18 L31.7934783,1.03846154 C31.7934783,0.464935067 31.3189974,0 30.7336957,0 Z" id="Path"></path>
                            <g id="original_weight" transform="translate(37.445652, 5.192308)">
                                <path d="M0.0706521739,1.41230769 C0.0513566584,1.13620234 0.190740087,0.872583443 0.432053507,0.728781536 C0.673366926,0.58497963 0.976361335,0.58497963 1.21767475,0.728781536 C1.45898817,0.872583443 1.5983716,1.13620234 1.57907609,1.41230769 L1.57907609,12.4892308 L6.38342391,12.4892308 C6.75323772,12.5016395 7.05063292,12.7915417 7.06521739,13.1538462 C7.07095429,13.3355199 7.00129114,13.5117131 6.87214052,13.6421794 C6.74298989,13.7726458 6.56538378,13.8461539 6.3798913,13.8461539 L0.816032609,13.8461539 C0.400716641,13.8385859 0.0686483317,13.5054877 0.0706521739,13.0984615 L0.0706521739,1.41230769 Z" id="Path"></path>
                                <path d="M9.89130435,1.14923077 C9.94024374,0.716084135 10.3138192,0.388315232 10.7585598,0.388315232 C11.2033004,0.388315232 11.5768758,0.716084135 11.6258152,1.14923077 L11.6258152,1.38461538 C11.5768758,1.81776202 11.2033004,2.14553092 10.7585598,2.14553092 C10.3138192,2.14553092 9.94024374,1.81776202 9.89130435,1.38461538 L9.89130435,1.14923077 Z M10.0255435,4.815 C10.0255435,4.41735498 10.3545169,4.095 10.7603261,4.095 C11.1661353,4.095 11.4951087,4.41735498 11.4951087,4.815 L11.4951087,13.2057692 C11.5061007,13.399549 11.4335789,13.5889516 11.295216,13.7278216 C11.1568532,13.8666916 10.9653563,13.9422753 10.7673913,13.9361538 C10.5694426,13.9380393 10.3790913,13.8615808 10.2394467,13.724094 C10.0998021,13.5866072 10.022679,13.3997244 10.0255435,13.2057692 L10.0255435,4.815 Z" id="Shape"></path>
                                <path d="M15.4728261,15.7292308 C15.2384337,15.6184174 15.0899751,15.3853931 15.0913043,15.1303846 C15.1208724,14.7853328 15.4060608,14.5147534 15.7589674,14.4969231 C15.874237,14.4966796 15.9871137,14.52914 16.0839674,14.5903846 C17.1155353,15.2700963 18.3310848,15.6317647 19.5741848,15.6288462 C21.7467391,15.6288462 23.1597826,14.4519231 23.1597826,12.1915385 L23.1597826,11.0492308 C22.3013587,12.1707692 21.1002717,13.0880769 19.273913,13.0880769 C18.0414094,13.1087838 16.8529193,12.6393462 15.979617,11.7868746 C15.1063148,10.9344029 14.6227046,9.77162411 14.6391304,8.56384615 L14.6391304,8.52576923 C14.6484741,6.53737283 15.9681115,4.78280962 17.9036003,4.18539641 C19.839089,3.58798319 21.946725,4.28467484 23.1173913,5.90884615 L23.1173913,4.815 C23.1136056,4.62317344 23.1884878,4.43787213 23.3252705,4.30058807 C23.4620532,4.16330401 23.6493092,4.08550639 23.8451087,4.08461538 C24.2553907,4.08652075 24.5869565,4.41296767 24.5869565,4.815 L24.5869565,12.1603846 C24.5869565,13.6557692 24.13125,14.7946154 23.3293478,15.5803846 C22.4497283,16.4388462 21.1355978,16.8715565 19.5706522,16.8715565 C18.1224467,16.8746383 16.702509,16.4788173 15.4728261,15.7292308 Z M23.1986413,8.55346154 L23.1986413,8.51538462 C23.1986413,6.53538462 21.432337,5.24423077 19.5741848,5.24423077 C17.7160326,5.24423077 16.1581522,6.51461538 16.1581522,8.49807692 L16.1581522,8.53269231 C16.1521756,9.4172101 16.5120159,10.2663962 17.1556221,10.8866193 C17.7992283,11.5068423 18.6717319,11.8452272 19.5741848,11.8246154 C21.4429348,11.8246154 23.1986413,10.4953846 23.1986413,8.55346154 L23.1986413,8.55346154 Z" id="Shape"></path>
                                <path d="M27.9853261,0.834230769 C27.9853261,0.436585749 28.3142995,0.114230769 28.7201087,0.114230769 C29.1259179,0.114230769 29.4548913,0.436585749 29.4548913,0.834230769 L29.4548913,5.86038462 C30.1314526,4.66164323 31.4346948,3.93363321 32.8320652,3.97384615 C35.2165761,3.97384615 36.6084239,5.54192308 36.6084239,7.84384615 L36.6084239,13.2057692 C36.6084239,13.6034143 36.2794505,13.9257692 35.8736413,13.9257692 C35.4678321,13.9257692 35.1388587,13.6034143 35.1388587,13.2057692 L35.1388587,8.19692308 C35.1388587,6.40384615 34.1461957,5.28230769 32.4116848,5.28230769 C30.6771739,5.28230769 29.4548913,6.49730769 29.4548913,8.31115385 L29.4548913,13.2057692 C29.4655787,13.3958844 29.3958872,13.5819205 29.2622126,13.7201099 C29.1285381,13.8582994 28.942682,13.9364421 28.7483696,13.9362299 C28.549812,13.9389809 28.3585407,13.862938 28.2181244,13.7253467 C28.0777082,13.5877554 28.0001041,13.4003322 28.0029891,13.2057692 L27.9853261,0.834230769 Z" id="Path"></path>
                                <path d="M40.0809783,11.2811538 L40.0809783,5.44846154 L39.2790761,5.44846154 C38.9253287,5.43945941 38.6401907,5.16157634 38.6290761,4.815 C38.6328988,4.46480038 38.9216864,4.18182269 39.2790761,4.17807692 L40.0809783,4.17807692 L40.0809783,1.89692308 C40.0730573,1.50570922 40.3883425,1.18131983 40.7875,1.17 C41.1940511,1.17737915 41.5218172,1.49855112 41.5293478,1.89692308 L41.5293478,4.17807692 L44.0869565,4.17807692 C44.4474102,4.18153888 44.7414259,4.46201778 44.7546196,4.815 C44.7518314,4.98576578 44.6799166,5.1484495 44.5547005,5.26725132 C44.4294844,5.38605314 44.2612276,5.45123803 44.0869565,5.44846154 L41.5293478,5.44846154 L41.5293478,11.0942308 C41.5293478,12.2711538 42.1970109,12.7003846 43.1896739,12.7003846 C43.492581,12.6892499 43.7933956,12.646312 44.0869565,12.5723077 C44.4326409,12.5760509 44.7119408,12.8497318 44.7157609,13.1884615 C44.7121983,13.4441628 44.5433247,13.6694329 44.2953804,13.7492308 C43.8349611,13.9291094 43.3426004,14.0173634 42.8470109,14.0088462 C41.2820652,14.0088462 40.0809783,13.2438462 40.0809783,11.2811538 Z" id="Path"></path>
                                <path d="M47.919837,0.834230769 C47.919837,0.436585749 48.2488103,0.114230769 48.6546196,0.114230769 C49.0604288,0.114230769 49.3894022,0.436585749 49.3894022,0.834230769 L49.3894022,6.12346154 C50.1913043,4.96384615 51.3535326,3.97384615 53.1657609,3.97384615 C55.5326087,3.97384615 57.8782609,5.805 57.8782609,8.98269231 L57.8782609,9.02076923 C57.8782609,12.1776923 55.5502717,14.0469231 53.1657609,14.0469231 C51.6291608,14.0462061 50.201605,13.2689297 49.3894022,11.9907692 L49.3894022,13.2057692 C49.3931828,13.397 49.3187822,13.5817748 49.1827644,13.7189571 C49.0467466,13.8561394 48.8604022,13.9343417 48.6652174,13.9361538 C48.2535551,13.9361538 47.919837,13.6091495 47.919837,13.2057692 L47.919837,0.834230769 Z M56.369837,9.03807692 L56.369837,9 C56.369837,6.72230769 54.7695652,5.26153846 52.8972826,5.26153846 C51.9173716,5.2903772 50.9897744,5.70141637 50.3205073,6.40336557 C49.6512403,7.10531476 49.2957107,8.0400609 49.3328804,9 L49.3328804,9.03807692 C49.3328804,11.2811538 51.0673913,12.7765385 52.8972826,12.7765385 C54.8048913,12.7592308 56.369837,11.3746154 56.369837,9.03807692 Z" id="Shape"></path>
                                <path d="M64.7067935,14.0676923 C61.9972826,14.0676923 59.7858696,12.0288462 59.7858696,9.03807692 L59.7858696,9 C59.7858696,6.23076923 61.7888587,3.97384615 64.5160326,3.97384615 C67.4339674,3.97384615 69.1084239,6.31038462 69.1084239,8.87192308 C69.1084239,9.05062753 69.0357378,9.22196265 68.9064492,9.34800052 C68.7771606,9.47403839 68.6019363,9.5443827 68.4195652,9.54346154 L61.2730978,9.54346154 C61.4815217,11.6203846 62.9899457,12.8146154 64.7456522,12.8146154 C65.8012832,12.8181657 66.8161313,12.4154211 67.5717391,11.6930769 C67.6862868,11.5885305 67.835657,11.5282626 67.9921196,11.5234615 C68.1617063,11.5206844 68.3254707,11.5840456 68.4473745,11.6996017 C68.5692783,11.8151579 68.639332,11.9734397 68.6421196,12.1396154 C68.6394722,12.3209014 68.5554768,12.4918438 68.4125,12.6069231 C67.436898,13.5755249 66.0951388,14.104439 64.7067935,14.0676923 Z M67.6247283,8.47730769 C67.4728261,6.72230769 66.4413043,5.18884615 64.4771739,5.18884615 C62.7603261,5.18884615 61.4638587,6.59076923 61.2730978,8.47730769 L67.6247283,8.47730769 Z" id="Shape"></path>
                                <path d="M71.5352484,4.815 C71.5352484,4.41735498 71.8642995,4.095 72.2701087,4.095 C72.6759179,4.095 73.0048913,4.41735498 73.0048913,4.815 L73.0048913,5.85346154 C73.6814526,4.65472015 74.9846948,3.92671014 76.3820652,3.96692308 C78.7665761,3.96692308 80.1584239,5.535 80.1584239,7.83692308 L80.1584239,13.2057692 C80.1584239,13.6034143 79.8294505,13.9257692 79.4236413,13.9257692 C79.0178321,13.9257692 78.6888587,13.6034143 78.6888587,13.2057692 L78.6888587,8.19692308 C78.6888587,6.40384615 77.6961957,5.28230769 75.9616848,5.28230769 C74.2271739,5.28230769 73.0048913,6.49730769 73.0048913,8.31115385 L73.0048913,13.2057692 C73.0158194,13.3989303 72.9437679,13.5877607 72.8061919,13.7265146 C72.6686159,13.8652684 72.4780667,13.9412869 72.2807065,13.9361538 C72.0821489,13.9389809 71.8908776,13.862938 71.7504614,13.7253467 C71.6100451,13.5877554 71.532441,13.4003322 71.5352484,13.2057692 L71.5352484,4.815 Z" id="Path"></path>
                                <path d="M92.4413043,13.2057692 C92.4603391,13.4742838 92.3249386,13.7307795 92.0902902,13.8707125 C91.8556418,14.0106455 91.5609342,14.0106455 91.3262858,13.8707125 C91.0916374,13.7307795 90.956237,13.4742838 90.9752717,13.2057692 L90.9752717,11.8973077 C90.1733696,13.0569231 89.0076087,14.0469231 87.1953804,14.0469231 C84.8320652,14.0469231 82.486413,12.2157692 82.486413,9.03807692 L82.486413,9 C82.486413,5.84307692 84.8320652,3.97384615 87.1953804,3.97384615 C88.7330617,3.97403152 90.1619225,4.75129134 90.9752717,6.03 L90.9752717,0.837692308 C90.9643436,0.644531194 91.0363951,0.455700798 91.1739711,0.316946967 C91.3115472,0.178193135 91.5020964,0.10217466 91.6994565,0.107307692 C91.8977006,0.104455407 92.0886295,0.180604331 92.228491,0.318304636 C92.3683525,0.456004941 92.4451569,0.643452266 92.4413043,0.837692308 L92.4413043,13.2057692 Z M83.9913043,9 L83.9913043,9.03807692 C83.9913043,11.3157692 85.6127717,12.7765385 87.4638587,12.7765385 C88.4437506,12.7467654 89.3711311,12.3355604 90.0407589,11.6339282 C90.7103868,10.932296 91.0670424,9.99809542 91.0317935,9.03807692 L91.0317935,9 C91.0670173,8.0416568 90.7098219,7.1092803 90.0397085,6.41039 C89.3695951,5.71149971 88.4421729,5.30409284 87.4638587,5.27884615 C85.55625,5.26153846 83.9913043,6.64615385 83.9913043,9 Z" id="Shape"></path>
                            </g>
                        </g>
                    </g>
                </g>
            </g>
        </g>
    </g>
</svg>