<?xml version="1.0" encoding="UTF-8"?>
<svg width="41px" height="38px" viewBox="0 0 41 38" version="1.1" xmlns="http://www.w3.org/2000/svg" xmlns:xlink="http://www.w3.org/1999/xlink">
    <!-- Generator: sketchtool 62 (101010) - https://sketch.com -->
    <title>4F711B8B-0EA7-455E-B08D-CE6C44108F8C</title>
    <desc>Created with sketchtool.</desc>
    <g id="onepage_site" stroke="none" stroke-width="1" fill="none" fill-rule="evenodd">
        <g id="A_WHITE" transform="translate(-734.000000, -1494.000000)" fill="#000000" fill-rule="nonzero">
            <g id="SECTION_03" transform="translate(0.000000, 1130.000000)">
                <g id="ORGANIZATION" transform="translate(733.000000, 358.000000)">
                    <g id="noun_Odds_2969254" transform="translate(1.000000, 6.000000)">
                        <path d="M29.3214255,23.8756129 L28.689856,23.2843948 C29.3220612,22.349024 29.7780624,21.3189155 30.0379782,20.2389813 L30.9298246,20.2389813 C31.6389194,20.2383182 32.2135777,19.7001016 32.2142857,19.0359738 L32.2142857,17.2314625 C32.21353,16.5673532 31.6388996,16.0291628 30.9298246,16.028455 L30.0379782,16.028455 C29.7780616,14.9485694 29.3220609,13.9185117 28.6898592,12.9831948 L29.3214127,12.3918384 C29.8078009,11.9162266 29.8078009,11.1661631 29.3214127,10.6905512 L27.959187,9.41455723 C27.4573209,8.94521909 26.6444302,8.94521909 26.142564,9.41455723 L25.5113252,10.0057813 C24.5126071,9.413759 23.4127506,8.98677423 22.2597118,8.74344445 L22.2597118,7.90815422 C22.2589561,7.24404492 21.6843257,6.70585451 20.9752506,6.70514671 L19.0485589,6.70514671 C18.3394839,6.70585451 17.7648535,7.24404492 17.7640977,7.90815422 L17.7640977,8.74344445 C16.6110589,8.98677423 15.5112024,9.413759 14.5124843,10.0057813 L13.8812359,9.41455723 C13.3793697,8.94521909 12.566479,8.94521909 12.0646129,9.41455723 L10.7024097,10.6903768 C10.215201,11.1656814 10.2151882,11.9163599 10.7023808,12.391679 L11.3339503,12.9831978 C10.7017489,13.9185137 10.2457483,14.9485705 9.9858313,16.028455 L9.09398496,16.028455 C8.38490992,16.0291628 7.81027954,16.5673532 7.80952381,17.2314625 L7.80952381,19.0359738 C7.81023184,19.7001016 8.38489014,20.2383182 9.09398496,20.2389813 L9.9858313,20.2389813 C10.2457461,21.3189153 10.7017462,22.3490238 11.3339503,23.2843948 L10.7023808,23.8756189 C10.2015721,24.3457785 10.2015721,25.1068818 10.7023808,25.5770414 L12.0646225,26.852879 C12.5664887,27.3222172 13.3793794,27.3222172 13.8812455,26.852879 L14.5125004,26.2613602 C15.5111987,26.8534728 16.6110485,27.2805568 17.7640977,27.5239918 L17.7640977,28.359282 C17.7648058,29.0234099 18.3394641,29.5616264 19.0485589,29.5622896 L20.9752506,29.5622896 C21.6843454,29.5616264 22.2590037,29.0234099 22.2597118,28.359282 L22.2597118,27.5239918 C23.4127664,27.2805594 24.5126218,26.8534764 25.5113252,26.2613632 L26.14258,26.852882 C26.6445113,27.3220728 27.4572718,27.3220728 27.9592031,26.852882 L29.3214255,25.5770264 C29.8222278,25.1068678 29.8222278,24.3457715 29.3214255,23.8756129 L29.3214255,23.8756129 Z M27.0507262,26.0023166 L25.662153,24.7012099 L25.219364,24.9963828 C24.1168217,25.735013 22.8483479,26.2274064 21.5111728,26.4358204 L20.9752506,26.5201151 L20.9752506,28.359282 L19.0485589,28.359282 L19.0485589,26.5201151 L18.5126335,26.4358234 C17.1754581,26.2274085 15.9069843,25.735014 14.8044424,24.9963828 L14.3616533,24.7012099 L12.9727654,26.0023136 L11.6105334,24.7261753 L12.9997327,23.425658 L12.6845741,23.0109482 C11.8959325,21.9783233 11.3702,20.7902893 11.1476746,19.5379106 L11.0576788,19.0359738 L9.09398496,19.0359738 L9.09398496,17.2314625 L11.0576788,17.2314625 L11.1476778,16.7295226 C11.3701465,15.477174 11.8958853,14.2891764 12.6845773,13.2566324 L12.9997359,12.8422174 L11.6105366,11.5411136 L12.9730801,10.2651196 L14.361968,11.566076 L14.8044424,11.2710384 C15.9068549,10.5321895 17.1753849,10.0397743 18.5126335,9.83160084 L19.0485589,9.74732114 L19.0485589,7.90815422 L20.9752506,7.90815422 L20.9752506,9.74732114 L21.511176,9.83161287 C22.8484249,10.0397873 24.1169549,10.5322035 25.2193672,11.2710535 L25.6618416,11.5660911 L27.0510409,10.2651347 L28.4132729,11.5411287 L27.0240736,12.8422324 L27.3392322,13.2566475 C28.1279243,14.2891914 28.653663,15.4771891 28.8761317,16.7295377 L28.9661307,17.2314625 L30.9298246,17.2314625 L30.9298246,19.0359738 L28.9661307,19.0359738 L28.8761317,19.5379136 C28.6536054,20.7902925 28.1278717,21.9783266 27.339229,23.0109512 L27.0240704,23.425661 L28.4132697,24.726473 L27.0507262,26.0023166 Z" id="Shape"></path>
                        <path d="M19.9630952,13.3718134 C16.9978521,13.3718134 14.5940476,15.5037908 14.5940476,18.1337181 C14.5940476,20.7636455 16.9978521,22.8956229 19.9630952,22.8956229 C22.9283384,22.8956229 25.3321429,20.7636455 25.3321429,18.1337181 C25.3288358,15.5050066 22.9269675,13.3747464 19.9630952,13.3718134 Z M19.9630952,21.7751747 C17.6955564,21.7751747 15.8573529,20.1448391 15.8573529,18.1337181 C15.8573529,16.1225972 17.6955564,14.4922616 19.9630952,14.4922616 C22.2306341,14.4922616 24.0688375,16.1225972 24.0688375,18.1337181 C24.0662182,20.143876 22.2295483,21.7728516 19.9630952,21.7751747 Z" id="Shape"></path>
                        <path d="M5.36904762,9.56228956 C8.33429074,9.56228956 10.7380952,7.43031218 10.7380952,4.8003848 C10.7380952,2.17045742 8.33429074,0.0384800385 5.36904762,0.0384800385 C2.4038045,0.0384800385 0,2.17045742 0,4.8003848 C0.00330702204,7.42909631 2.40517539,9.55935651 5.36904762,9.56228956 Z M5.36904762,1.15892822 C7.63658648,1.15892822 9.47478992,2.78926386 9.47478992,4.8003848 C9.47478992,6.81150574 7.63658648,8.44184138 5.36904762,8.44184138 C3.10150876,8.44184138 1.26330532,6.81150574 1.26330532,4.8003848 C1.2658708,2.7902071 3.10257227,1.16120358 5.36904762,1.15892822 Z" id="Shape"></path>
                        <path d="M35.6309524,9.56228956 C38.5961955,9.56228956 41,7.43031218 41,4.8003848 C41,2.17045742 38.5961955,0.0384800385 35.6309524,0.0384800385 C32.6657093,0.0384800385 30.2619048,2.17045742 30.2619048,4.8003848 C30.2652118,7.42909631 32.6670802,9.55935651 35.6309524,9.56228956 L35.6309524,9.56228956 Z M35.6309524,1.15892822 C37.8984912,1.15892822 39.7366947,2.78926386 39.7366947,4.8003848 C39.7366947,6.81150574 37.8984912,8.44184138 35.6309524,8.44184138 C33.3634135,8.44184138 31.5252101,6.81150574 31.5252101,4.8003848 C31.5277756,2.7902071 33.364477,1.16120358 35.6309524,1.15892822 Z" id="Shape"></path>
                        <path d="M35.6309524,27.6575277 C32.6657093,27.6575277 30.2619048,29.789505 30.2619048,32.4194324 C30.2619048,35.0493598 32.6657093,37.1813372 35.6309524,37.1813372 C38.5961955,37.1813372 41,35.0493598 41,32.4194324 C40.996693,29.7907209 38.5948246,27.6604607 35.6309524,27.6575277 L35.6309524,27.6575277 Z M35.6309524,36.060889 C33.3634135,36.060889 31.5252101,34.4305534 31.5252101,32.4194324 C31.5252101,30.4083115 33.3634135,28.7779758 35.6309524,28.7779758 C37.8984912,28.7779758 39.7366947,30.4083115 39.7366947,32.4194324 C39.7340754,34.4295903 37.8974054,36.0585659 35.6309524,36.060889 L35.6309524,36.060889 Z" id="Shape"></path>
                        <path d="M5.36904762,27.6575277 C2.4038045,27.6575277 0,29.789505 0,32.4194324 C0,35.0493598 2.4038045,37.1813372 5.36904762,37.1813372 C8.33429074,37.1813372 10.7380952,35.0493598 10.7380952,32.4194324 C10.7347882,29.7907209 8.33291985,27.6604607 5.36904762,27.6575277 Z M5.36904762,36.060889 C3.10150876,36.060889 1.26330532,34.4305534 1.26330532,32.4194324 C1.26330532,30.4083115 3.10150876,28.7779758 5.36904762,28.7779758 C7.63658648,28.7779758 9.47478992,30.4083115 9.47478992,32.4194324 C9.47217061,34.4295903 7.63550064,36.0585659 5.36904762,36.060889 L5.36904762,36.060889 Z" id="Shape"></path>
                        <ellipse id="Oval" cx="5.85714286" cy="5.27657528" rx="1" ry="1"></ellipse>
                        <ellipse id="Oval" cx="35.1428571" cy="5.27657528" rx="1" ry="1"></ellipse>
                        <ellipse id="Oval" cx="35.1428571" cy="31.9432419" rx="1" ry="1"></ellipse>
                        <ellipse id="Oval" cx="5.85714286" cy="31.9432419" rx="1" ry="1"></ellipse>
                    </g>
                </g>
            </g>
        </g>
    </g>
</svg>