<?xml version="1.0" encoding="UTF-8"?>
<svg width="140px" height="28px" viewBox="0 0 140 28" version="1.1" xmlns="http://www.w3.org/2000/svg" xmlns:xlink="http://www.w3.org/1999/xlink">
    <!-- Generator: sketchtool 62 (101010) - https://sketch.com -->
    <title>0C161A90-38DF-48F9-AB59-EB826AF3EC0A</title>
    <desc>Created with sketchtool.</desc>
    <g id="onepage_site" stroke="none" stroke-width="1" fill="none" fill-rule="evenodd" opacity="0.721981957">
        <g id="A_WHITE" transform="translate(-653.000000, -2725.000000)" fill-rule="nonzero">
            <g id="SECTION_04" transform="translate(0.000000, 1860.000000)">
                <g id="sponsor" transform="translate(244.000000, 837.000000)">
                    <g id="RadicalbitLogo" transform="translate(409.000000, 28.000000)">
                        <g id="XMLID_30_">
                            <g id="XMLID_31_">
                                <path d="M1.46341463,11.0318949 C1.46341463,10.7482176 1.46341463,10.4645403 1.49593496,10.2123827 C1.46341463,9.92870544 1.46341463,9.67654784 1.46341463,9.39287054 C1.46341463,6.39849906 2.92682927,3.78236398 5.20325203,2.08030019 C2.27642276,3.62476548 0.292682927,6.65065666 0.292682927,10.1178236 C0.292682927,13.3643527 2.01626016,16.2011257 4.6504065,17.8401501 C2.69918699,16.169606 1.46341463,13.7425891 1.46341463,11.0318949 Z" id="XMLID_32_" fill="#4B4F54"></path>
                                <path d="M15.4796748,17.430394 C13.8861789,18.5966229 11.902439,19.321576 9.75609756,19.321576 C7.8699187,19.321576 6.11382114,18.7857411 4.6504065,17.8716698 C6.30894309,19.321576 8.5203252,20.2041276 10.9593496,20.2041276 C16.195122,20.2041276 20.4227642,16.1065666 20.4227642,11.0318949 C20.4227642,10.7482176 20.4227642,10.4645403 20.3902439,10.2123827 C20.0650407,13.332833 18.1463415,15.9804878 15.4796748,17.430394 Z" id="XMLID_33_" fill="#DEDDEB"></path>
                                <path d="M15.4796748,17.430394 C14.1463415,18.1553471 12.5853659,18.5651032 10.9593496,18.5651032 C6.01626016,18.5651032 1.98373984,14.908818 1.52845528,10.2123827 C1.49593496,10.49606 1.49593496,10.7482176 1.49593496,11.0318949 C1.49593496,13.7425891 2.69918699,16.169606 4.6504065,17.8716698 C6.11382114,18.7857411 7.8699187,19.321576 9.75609756,19.321576 C11.8699187,19.2900563 13.8861789,18.5966229 15.4796748,17.430394 Z" id="XMLID_34_" fill="#7D858C"></path>
                                <path d="M16.0325203,3.30956848 C18.4390244,4.79099437 20.0650407,7.31257036 20.3577236,10.2123827 C20.3902439,9.92870544 20.3902439,9.67654784 20.3902439,9.39287054 C20.3902439,4.31819887 16.1626016,0.220637899 10.9268293,0.220637899 C8.7804878,0.220637899 6.79674797,0.914071295 5.20325203,2.11181989 C6.53658537,1.38686679 8.09756098,0.977110694 9.72357724,0.977110694 C12.1626016,0.977110694 14.3739837,1.85966229 16.0325203,3.30956848 Z" id="XMLID_37_" fill="#72B2DF"></path>
                            </g>
                            <path d="M16.0325203,3.30956848 C17.9512195,4.98011257 19.1869919,7.43864916 19.1869919,10.1493433 C19.1869919,13.1121951 17.7235772,15.7598499 15.4796748,17.430394 C18.1788618,16.0120075 20.0650407,13.332833 20.3577236,10.2123827 C20.0650407,7.31257036 18.4390244,4.79099437 16.0325203,3.30956848 Z" id="XMLID_40_" fill="#8EC7E8"></path>
                        </g>
                        <g id="XMLID_56_" transform="translate(26.463415, 11.951220)">
                            <path d="M6.9767409,15.1696938 C6.81219512,15.1696938 6.71346766,15.1370005 6.6805585,15.0062273 L4.31109933,8.76180592 C4.04782609,8.79449922 3.78455285,8.79449922 3.5212796,8.79449922 L2.36945917,8.79449922 C2.27073171,8.79449922 2.2049134,8.82719253 2.2049134,8.92527244 L2.2049134,14.973534 C2.2049134,15.1043072 2.10618593,15.2023871 1.94164016,15.2023871 L0.263273241,15.2023871 C0.0987274655,15.2023871 0,15.1043072 0,14.973534 L0,0.392319668 C0,0.261546445 0.0987274655,0.163466528 0.263273241,0.163466528 L3.55418876,0.163466528 C6.87801343,0.163466528 8.65510781,1.30773223 8.65510781,4.47898287 C8.65510781,6.47327452 7.83237893,7.68292683 6.35146695,8.30409964 L8.98419936,14.9408407 C9.05001767,15.0389206 8.98419936,15.1696938 8.85256274,15.1696938 L6.9767409,15.1696938 Z M6.41728526,4.51167618 C6.41728526,2.48469123 5.59455638,1.83082512 3.58709791,1.83082512 L2.40236833,1.83082512 C2.30364086,1.83082512 2.23782255,1.86351842 2.23782255,1.96159834 L2.23782255,7.02906072 C2.23782255,7.12714063 2.30364086,7.15983394 2.40236833,7.15983394 L3.58709791,7.15983394 C5.52873807,7.15983394 6.41728526,6.53866113 6.41728526,4.51167618 Z" id="XMLID_188_" fill="#4B4F54"></path>
                            <path d="M16.2900318,0.392319668 C16.3558501,0.261546445 16.4216684,0.163466528 16.5862142,0.163466528 L18.2645811,0.163466528 C18.4291269,0.163466528 18.5278544,0.261546445 18.5607635,0.392319668 L22.5098621,14.9408407 C22.5427713,15.0716139 22.4111347,15.1696938 22.2465889,15.1696938 L20.568222,15.1696938 C20.3707671,15.1696938 20.3049487,15.0716139 20.2720396,14.9408407 L19.4493107,11.6715101 L15.269848,11.6715101 L14.4471191,14.9408407 C14.41421,15.0716139 14.3483917,15.1696938 14.1838459,15.1696938 L12.505479,15.1696938 C12.3409332,15.1696938 12.2422057,15.0716139 12.2422057,14.9408407 L16.2900318,0.392319668 Z M19.08731,10.1349248 L17.4747614,3.59626362 L17.3760339,3.59626362 L15.697667,10.1349248 L19.08731,10.1349248 Z" id="XMLID_191_" fill="#4B4F54"></path>
                            <path d="M26.4918699,0.392319668 C26.4918699,0.261546445 26.5905974,0.163466528 26.7551432,0.163466528 L30.6713326,0.163466528 C33.0407918,0.163466528 34.4229763,0.948105864 35.0153411,2.48469123 C35.3444327,3.30202387 35.4431601,4.28282304 35.4431601,7.65023352 C35.4431601,10.9849507 35.3444327,11.9984432 35.0153411,12.8157758 C34.3900672,14.3523612 33.0407918,15.1370005 30.6713326,15.1370005 L26.7551432,15.1370005 C26.5905974,15.1370005 26.4918699,15.0389206 26.4918699,14.9081474 L26.4918699,0.392319668 Z M28.8942382,13.5023352 L30.4409685,13.5023352 C31.7244256,13.5023352 32.448427,13.1100156 32.8104277,12.2272963 C33.073701,11.6061235 33.1724284,10.7887909 33.1724284,7.68292683 C33.1724284,4.54436949 33.073701,3.72703684 32.8104277,3.13855734 C32.4155179,2.25583809 31.6915164,1.86351842 30.4409685,1.86351842 L28.8942382,1.86351842 C28.7955108,1.86351842 28.7296925,1.89621173 28.7296925,1.99429165 L28.7296925,13.4042553 C28.7296925,13.4696419 28.7955108,13.5023352 28.8942382,13.5023352 Z" id="XMLID_194_" fill="#4B4F54"></path>
                            <path d="M40.2808059,0.392319668 C40.2808059,0.261546445 40.3795334,0.163466528 40.5440792,0.163466528 L42.2224461,0.163466528 C42.3869919,0.163466528 42.4857193,0.261546445 42.4857193,0.392319668 L42.4857193,14.9408407 C42.4857193,15.0716139 42.3869919,15.1696938 42.2224461,15.1696938 L40.5440792,15.1696938 C40.3795334,15.1696938 40.2808059,15.0716139 40.2808059,14.9408407 L40.2808059,0.392319668 Z" id="XMLID_197_" fill="#4B4F54"></path>
                            <path d="M47.3562743,7.68292683 C47.3562743,3.43279709 47.4550018,2.81162429 47.6853659,2.19045148 C48.2777306,0.784639336 49.5940969,0 51.7331919,0 C54.2013786,0 55.6822906,1.04618578 55.9455638,3.33471718 C55.978473,3.49818371 55.8797455,3.56357032 55.7151997,3.59626362 L54.1355603,3.82511676 C53.9710145,3.85781007 53.8393779,3.79242346 53.8393779,3.66165023 C53.7077413,2.3212247 53.0495581,1.66735859 51.7661011,1.66735859 C50.7788264,1.66735859 50.1535525,1.99429165 49.8902793,2.71354437 C49.7257335,3.13855734 49.627006,3.56357032 49.627006,7.68292683 C49.627006,11.8349766 49.7257335,12.2272963 49.8902793,12.6523093 C50.1535525,13.371562 50.7788264,13.6984951 51.7661011,13.6984951 C53.0824673,13.6984951 53.7077413,13.044629 53.8393779,11.7042034 C53.8393779,11.5734302 53.9710145,11.5080436 54.1355603,11.5407369 L55.7151997,11.76959 C55.8797455,11.8022833 55.978473,11.86767 55.9455638,12.0311365 C55.6822906,14.3196679 54.2013786,15.3658537 51.7331919,15.3658537 C49.5940969,15.3658537 48.2777306,14.5812143 47.6853659,13.1754022 C47.4220926,12.5542294 47.3562743,11.9330566 47.3562743,7.68292683 Z" id="XMLID_199_" fill="#4B4F54"></path>
                            <path d="M62.7577589,0.392319668 C62.8235772,0.261546445 62.8893955,0.163466528 63.0539413,0.163466528 L64.7323082,0.163466528 C64.896854,0.163466528 64.9955815,0.261546445 65.0284906,0.392319668 L68.9775893,14.9408407 C69.0104984,15.0716139 68.8788618,15.1696938 68.714316,15.1696938 L67.0359491,15.1696938 C66.8384942,15.1696938 66.7726759,15.0716139 66.7397667,14.9408407 L65.9170378,11.6715101 L61.7375751,11.6715101 L60.9148462,14.9408407 C60.8819371,15.0716139 60.8161188,15.1696938 60.651573,15.1696938 L58.9732061,15.1696938 C58.8086603,15.1696938 58.7099328,15.0716139 58.7099328,14.9408407 L62.7577589,0.392319668 Z M65.5550371,10.1349248 L63.9424885,3.59626362 L63.843761,3.59626362 L62.132485,10.1349248 L65.5550371,10.1349248 Z" id="XMLID_201_" fill="#4B4F54"></path>
                            <path d="M72.959597,0.392319668 C72.959597,0.261546445 73.0583245,0.163466528 73.2228703,0.163466528 L74.9012372,0.163466528 C75.065783,0.163466528 75.1645104,0.261546445 75.1645104,0.392319668 L75.1645104,13.371562 C75.1645104,13.4696419 75.2303287,13.5023352 75.3290562,13.5023352 L80.2654295,13.5023352 C80.4299753,13.5023352 80.5287027,13.6004152 80.5287027,13.7311884 L80.5287027,14.9408407 C80.5287027,15.0716139 80.4299753,15.1696938 80.2654295,15.1696938 L73.1899611,15.1696938 C73.0254153,15.1696938 72.9266879,15.0716139 72.9266879,14.9408407 L72.9266879,0.392319668 L72.959597,0.392319668 Z" id="XMLID_204_" fill="#4B4F54"></path>
                            <path d="M84.6752563,0.392319668 C84.6752563,0.261546445 84.7739837,0.163466528 84.9385295,0.163466528 L88.5256274,0.163466528 C91.7836338,0.163466528 93.1987275,1.27503892 93.1987275,4.0212766 C93.1987275,5.88479502 92.4089077,6.83290088 90.9938141,7.29060716 L90.9938141,7.32330047 C92.4089077,7.68292683 93.3632732,8.6964193 93.3632732,10.8214842 C93.3632732,14.0254281 91.7178155,15.1043072 88.1965359,15.1043072 L84.9056204,15.1043072 C84.7410746,15.1043072 84.6423471,15.0062273 84.6423471,14.8754541 L84.6423471,0.392319668 L84.6752563,0.392319668 Z M88.4269,6.66943435 C90.2039943,6.66943435 90.9609049,6.14634146 90.9609049,4.28282304 C90.9609049,2.35391801 90.3027218,1.86351842 88.3939908,1.86351842 L87.1105338,1.86351842 C87.0118063,1.86351842 86.945988,1.89621173 86.945988,1.99429165 L86.945988,6.53866113 C86.945988,6.63674105 87.0118063,6.66943435 87.1105338,6.66943435 L88.4269,6.66943435 Z M87.0776246,13.5023352 L88.3281725,13.5023352 C90.3685401,13.5023352 91.1254507,12.9138557 91.1254507,10.8541775 C91.1254507,8.85988583 90.335631,8.23871303 88.4269,8.23871303 L87.1105338,8.23871303 C87.0118063,8.23871303 86.945988,8.27140633 86.945988,8.36948625 L86.945988,13.4042553 C86.9130788,13.4696419 86.9788971,13.5023352 87.0776246,13.5023352 Z" id="XMLID_206_" fill="#8D8F90"></path>
                            <path d="M97.8389183,0.392319668 C97.8389183,0.261546445 97.9376458,0.163466528 98.1021916,0.163466528 L99.7805585,0.163466528 C99.9451043,0.163466528 100.043832,0.261546445 100.043832,0.392319668 L100.043832,14.9408407 C100.043832,15.0716139 99.9451043,15.1696938 99.7805585,15.1696938 L98.1021916,15.1696938 C97.9376458,15.1696938 97.8389183,15.0716139 97.8389183,14.9408407 L97.8389183,0.392319668 Z" id="XMLID_210_" fill="#8D8F90"></path>
                            <path d="M107.810392,15.1696938 C107.645847,15.1696938 107.547119,15.0716139 107.547119,14.9408407 L107.547119,1.96159834 C107.547119,1.86351842 107.481301,1.83082512 107.382573,1.83082512 L104.289113,1.83082512 C104.124567,1.83082512 104.02584,1.7327452 104.02584,1.60197198 L104.02584,0.392319668 C104.02584,0.261546445 104.124567,0.163466528 104.289113,0.163466528 L113.075857,0.163466528 C113.240403,0.163466528 113.33913,0.261546445 113.33913,0.392319668 L113.33913,1.63466528 C113.33913,1.76543851 113.240403,1.86351842 113.075857,1.86351842 L109.982397,1.86351842 C109.883669,1.86351842 109.817851,1.89621173 109.817851,1.99429165 L109.817851,14.973534 C109.817851,15.1043072 109.719123,15.2023871 109.554578,15.2023871 L107.810392,15.2023871 L107.810392,15.1696938 Z" id="XMLID_212_" fill="#8D8F90"></path>
                        </g>
                    </g>
                </g>
            </g>
        </g>
    </g>
</svg>