<?xml version="1.0" encoding="UTF-8"?>
<svg width="140px" height="35px" viewBox="0 0 140 35" version="1.1" xmlns="http://www.w3.org/2000/svg" xmlns:xlink="http://www.w3.org/1999/xlink">
    <!-- Generator: sketchtool 62 (101010) - https://sketch.com -->
    <title>4B9065F4-EDC5-4ACC-B88B-001A67B1EA93</title>
    <desc>Created with sketchtool.</desc>
    <g id="onepage_site" stroke="none" stroke-width="1" fill="none" fill-rule="evenodd" opacity="0.675920759">
        <g id="A_WHITE" transform="translate(-244.000000, -2893.000000)" fill="#000000" fill-rule="nonzero">
            <g id="SECTION_04" transform="translate(0.000000, 1860.000000)">
                <g id="sponsor" transform="translate(244.000000, 837.000000)">
                    <g id="redahat" transform="translate(0.000000, 196.000000)">
                        <path d="M29.1122349,20.189502 C31.9693312,20.189502 36.1030995,19.5656079 36.1030995,15.9673352 C36.1116415,15.6896293 36.0878629,15.4118662 36.0323002,15.1403128 L34.330832,7.31503694 C33.9380098,5.59328279 33.5931485,4.81220612 30.7383361,3.30083485 C28.5230016,2.10141061 23.6972268,0.120909702 22.2698206,0.120909702 C20.9406199,0.120909702 20.5546493,1.93455523 18.9696574,1.93455523 C17.4440457,1.93455523 16.3112561,0.580366568 14.8838499,0.580366568 C13.51354,0.580366568 12.6205546,1.56940793 11.930832,3.60310911 C11.930832,3.60310911 10.0101142,9.33906535 9.7634584,10.1709241 C9.72425462,10.323681 9.7073111,10.4818808 9.7132137,10.6400537 C9.7132137,12.8696286 18.0035889,20.1798292 29.1122349,20.1798292 M36.5415987,17.4279244 C36.9367047,19.4084253 36.9367047,19.61639 36.9367047,19.8775549 C36.9367047,23.2630266 33.341925,25.1419633 28.6166395,25.1419633 C17.9373573,25.1492179 8.58270799,18.5233663 8.58270799,14.1440169 C8.58209065,13.5344306 8.69945862,12.9311766 8.92756933,12.3714807 C5.08613377,12.574609 0.114192496,13.3000672 0.114192496,17.9478361 C0.114192496,25.5603109 17.149429,34.9429038 30.6378467,34.9429038 C40.9791191,34.9429038 43.5872757,29.9904424 43.5872757,26.0802226 C43.5872757,23.0042798 41.0750408,19.5124076 36.5461664,17.4279244" id="Shape" opacity="0.498093378"></path>
                        <path d="M36.5415987,17.4279244 C36.9367047,19.4084253 36.9367047,19.61639 36.9367047,19.8775549 C36.9367047,23.2630266 33.341925,25.1419693 28.6166395,25.1419693 C17.9373573,25.1492179 8.58270557,18.5233663 8.58270557,14.1440169 C8.58209065,13.5344306 8.69945862,12.9311766 8.92756933,12.3714807 L9.7634584,10.1805969 C9.72517035,10.3302404 9.70823479,10.4851056 9.7132137,10.6400537 C9.7132137,12.8696286 18.0035889,20.1798292 29.1122349,20.1798292 C31.9693312,20.1798292 36.1030995,19.5559351 36.1030995,15.9576624 C36.1116415,15.6799566 36.0878629,15.4021934 36.0323002,15.1306401 L36.5415987,17.4279244 Z" id="Path"></path>
                        <path d="M132.403915,22.4408406 C132.403915,25.3160733 134.036868,26.7137895 137.015008,26.7137895 C137.931935,26.6896189 138.843149,26.5532952 139.730506,26.3075329 L139.730506,22.9728433 C139.163349,23.1631523 138.571449,23.2578128 137.976509,23.2533538 C136.750082,23.2533538 136.295595,22.8470972 136.295595,21.6259092 L136.295595,16.5162652 L139.849266,16.5162652 L139.849266,13.0824297 L136.295595,13.0824297 L136.295595,8.72968045 L132.413051,9.61957586 L132.413051,13.0824297 L129.834584,13.0824297 L129.834584,16.5162652 L132.403915,16.5162652 L132.403915,22.4408406 Z M120.299511,22.5182228 C120.299511,21.6283274 121.142251,21.1954707 122.414356,21.1954707 C123.191916,21.2002563 123.966205,21.3025328 124.721044,21.5001631 L124.721044,23.2291719 C123.977169,23.6593751 123.140822,23.8784699 122.293312,23.8651569 C121.04633,23.8651569 120.299511,23.3573361 120.299511,22.5182228 M121.487113,26.7645715 C122.857423,26.7645715 123.962806,26.4598791 124.995106,25.7223299 L124.995106,26.5372613 L128.836542,26.5372613 L128.836542,17.9139814 C128.836542,14.6349103 126.749103,12.8357739 123.266232,12.8357739 C121.320392,12.8357739 119.39739,13.3194127 117.328222,14.3108723 L118.72137,17.3384512 C120.21044,16.675866 121.46199,16.2696094 122.56509,16.2696094 C124.163785,16.2696094 124.990538,16.9297764 124.990538,18.2791287 L124.990538,18.9392957 C124.049299,18.6813166 123.080574,18.5528999 122.10832,18.557221 C118.840131,18.557221 116.871452,20.0081374 116.871452,22.6028596 C116.871452,24.9678534 118.648287,26.7718261 121.482545,26.7718261 M100.370636,26.5445159 L104.502121,26.5445159 L104.502121,19.5680261 L111.419902,19.5680261 L111.419902,26.5372613 L115.562806,26.5372613 L115.562806,8.73451684 L111.435889,8.73451684 L111.435889,15.5755878 L104.518108,15.5755878 L104.518108,8.73451684 L100.386623,8.73451684 L100.370636,26.5445159 Z M84.6440457,19.7977545 C84.6440457,17.8631993 86.085155,16.388101 87.9830343,16.388101 C88.9704265,16.3669045 89.9292086,16.7398282 90.6688418,17.4327608 L90.6688418,22.1361482 C89.9450662,22.8602259 88.9782653,23.248455 87.9830343,23.2146627 C86.1102773,23.2146627 84.6440457,21.7395643 84.6440457,19.8074273 M90.7213703,26.5469341 L94.5650897,26.5469341 L94.5650897,7.84462144 L90.6825449,8.73451684 L90.6825449,13.7957969 C89.6941815,13.2025143 88.5755802,12.8955708 87.439478,12.9059015 C83.741925,12.9059015 80.834584,15.9310623 80.834584,19.7977545 C80.8131124,21.6304799 81.4880909,23.3954678 82.707819,24.6960395 C83.9275471,25.9966112 85.5897024,26.7236625 87.3207178,26.7138887 C88.545946,26.7199767 89.7408634,26.3106701 90.7305057,25.5458017 L90.7213703,26.5469341 Z M73.0831974,16.2019 C74.3073409,16.2019 75.3396411,17.0410133 75.7484502,18.3371653 L70.4499184,18.3371653 C70.8336052,16.999904 71.795106,16.2019 73.0831974,16.2019 M66.5353997,19.8291911 C66.5353997,23.7466654 69.5615008,26.7984263 73.4508972,26.7984263 C75.5885808,26.7984263 77.1507341,26.1866232 78.7608483,24.7623069 L76.1892333,22.3441128 C75.5885808,23.006698 74.7001631,23.3621725 73.6450245,23.3621725 C72.2868492,23.4026764 71.0451583,22.5540594 70.5207178,21.2269072 L79.5761827,21.2269072 L79.5761827,20.2040111 C79.5761827,15.9310623 76.862969,12.8551195 73.1631321,12.8551195 C71.4061072,12.8270487 69.7126588,13.550533 68.466036,14.8618385 C67.2194132,16.1731441 66.5250059,17.9614128 66.5399674,19.8219365 M59.8368679,12.4730448 C61.2071778,12.4730448 61.9745514,13.3871222 61.9745514,14.4825641 C61.9745514,15.5780059 61.2071778,16.4920833 59.8368679,16.4920833 L55.7510604,16.4920833 L55.7510604,12.4730448 L59.8368679,12.4730448 Z M51.6150082,26.5372613 L55.7464927,26.5372613 L55.7464927,20.0516649 L58.891354,20.0516649 L62.0636215,26.5372613 L66.6884176,26.5372613 L62.9885808,19.4156799 C64.9122043,18.5873303 66.1670313,16.6039422 66.1585644,14.4051818 C66.1585644,11.2010748 63.7810767,8.73451684 60.2205546,8.73451684 L51.6150082,8.73451684 L51.6150082,26.5372613 Z" id="Shape"></path>
                    </g>
                </g>
            </g>
        </g>
    </g>
</svg>