<?xml version="1.0" encoding="UTF-8"?>
<svg width="106px" height="44px" viewBox="0 0 106 44" version="1.1" xmlns="http://www.w3.org/2000/svg" xmlns:xlink="http://www.w3.org/1999/xlink">
    <!-- Generator: sketchtool 62 (101010) - https://sketch.com -->
    <title>4D39C77F-5769-4515-90A9-1454BBA61E92</title>
    <desc>Created with sketchtool.</desc>
    <defs>
        <linearGradient x1="0.170666667%" y1="49.648%" x2="99.8186667%" y2="49.648%" id="linearGradient-1">
            <stop stop-color="#656565" offset="0%"></stop>
            <stop stop-color="#010101" offset="100%"></stop>
        </linearGradient>
        <linearGradient x1="0.170666667%" y1="49.82%" x2="99.8186667%" y2="49.82%" id="linearGradient-2">
            <stop stop-color="#656565" offset="0%"></stop>
            <stop stop-color="#010101" offset="100%"></stop>
        </linearGradient>
    </defs>
    <g id="onepage_site" stroke="none" stroke-width="1" fill="none" fill-rule="evenodd">
        <g id="A_WHITE" transform="translate(-663.000000, -2885.000000)" fill-rule="nonzero">
            <g id="SECTION_04" transform="translate(0.000000, 1860.000000)">
                <g id="sponsor" transform="translate(244.000000, 837.000000)">
                    <g id="Group-2" transform="translate(419.000000, 188.000000)">
                        <path d="M34.439,31.882 L35.443,27.448 C36.635,27.783 37.743,28.264 38.915,28.41 C40.087,28.556 41.3,28.473 42.471,28.347 C43.141,28.284 43.601,27.761 43.684,27.029 C43.747,26.329 43.391,25.816 42.804,25.523 L40.568,24.5 L37.598,23.078 C35.653,21.928 34.481,20.254 34.608,17.891 C34.733,15.506 35.948,13.811 37.998,12.725 C39.964,11.679 42.098,11.449 44.273,11.7 C45.673,11.867 47.033,12.307 48.477,12.662 L47.307,17.096 C46.073,16.719 44.902,16.343 43.687,16.216 C42.85,16.132 41.93,16.216 41.135,16.466 C39.943,16.843 39.795,18.16 40.842,18.851 C41.574,19.331 42.452,19.625 43.268,19.981 C44.335,20.483 45.464,20.861 46.448,21.487 C50.443,23.955 50.213,29.665 46.072,31.904 C43.918,33.054 41.596,33.326 39.212,33.117 C37.612,32.95 36.032,32.615 34.442,31.883 L34.439,31.882 Z M79.682,32.782 L74.829,32.782 L74.432,31.442 C73.219,32.655 71.817,33.115 70.228,33.115 C67.781,33.115 65.982,31.818 65.375,29.622 C64.747,27.322 65.731,24.999 67.801,23.786 C69.495,22.803 71.357,22.573 73.261,22.426 C73.491,22.406 73.701,22.406 73.931,22.384 C73.826,21.504 73.324,21.108 72.258,21.024 C70.522,20.878 68.911,21.254 67.238,22.091 L66.213,18.471 C67.553,18.094 68.807,17.571 70.123,17.425 C71.733,17.258 73.407,17.258 74.997,17.53 C77.653,18.01 79.285,20.145 79.41,23.03 C79.494,25.038 79.473,27.067 79.473,29.075 C79.493,30.288 79.493,31.795 79.683,32.777 L79.682,32.782 Z M74.139,25.879 C73.114,25.753 72.215,25.921 71.357,26.402 C70.771,26.737 70.437,27.302 70.583,27.95 C70.688,28.368 70.96,28.89 71.315,29.1 C72.403,29.728 73.93,28.933 74.097,27.678 C74.202,27.092 74.139,26.508 74.139,25.878 L74.139,25.879 Z M105.493,32.761 L100.64,32.761 L100.243,31.421 C99.03,32.634 97.628,33.094 96.039,33.094 C93.592,33.094 91.793,31.797 91.186,29.601 C90.558,27.301 91.542,24.978 93.612,23.765 C95.306,22.782 97.168,22.552 99.072,22.405 C99.302,22.385 99.512,22.385 99.742,22.363 C99.637,21.483 99.135,21.087 98.069,21.003 C96.333,20.857 94.722,21.233 93.049,22.07 L92.024,18.45 C93.364,18.073 94.618,17.55 95.934,17.404 C97.544,17.237 99.218,17.237 100.808,17.509 C103.464,17.989 105.096,20.124 105.221,23.009 C105.305,25.017 105.284,27.046 105.284,29.054 C105.284,30.288 105.304,31.774 105.494,32.756 L105.493,32.761 Z M99.95,25.858 C98.925,25.732 98.026,25.9 97.168,26.381 C96.582,26.716 96.248,27.281 96.394,27.929 C96.499,28.347 96.771,28.869 97.126,29.079 C98.214,29.707 99.741,28.912 99.908,27.657 C100.013,27.092 99.95,26.487 99.95,25.857 L99.95,25.858 Z M62.928,21.82 C60.92,21.423 59.038,21.046 57.636,22.93 C56.756,24.122 56.756,26.235 57.636,27.385 C59.058,29.288 61.026,28.912 63.096,28.555 C63.284,29.789 63.64,32.592 63.64,32.592 C63.64,32.592 63.62,32.592 63.39,32.676 C59.625,33.701 55.212,32.969 53.224,30.646 C51.174,28.261 50.924,25.459 51.844,22.551 C52.744,19.685 54.898,18.096 57.744,17.489 C59.5479207,17.0873356 61.4231277,17.1374876 63.203,17.635 C63.356851,17.6750869 63.5101962,17.7170901 63.663,17.761 L62.931,21.819 L62.928,21.82 Z M83.028,10.818 L88.425,10.818 L88.425,32.738 L83.028,32.738 L83.028,10.818 Z" id="Shape" fill="#231F20"></path>
                        <g id="scala-lang-ar21" opacity="0.590122768">
                            <g id="Group" transform="translate(0.374880, 0.781980)">
                                <path d="M0.1305724,16.32155 C0.1305724,16.32155 24.6128974,18.7697825 24.6128974,22.85017 L24.6128974,13.05724 C24.6128974,13.05724 24.6128974,8.9768525 0.1305724,6.52862 L0.1305724,16.32155 Z" id="Path" fill="url(#linearGradient-1)"></path>
                                <path d="M0.1305724,29.37879 C0.1305724,29.37879 24.6128974,31.8270225 24.6128974,35.90741 L24.6128974,26.11448 C24.6128974,26.11448 24.6128974,22.0340925 0.1305724,19.58586 L0.1305724,29.37879 Z" id="Path" fill="url(#linearGradient-2)"></path>
                                <path d="M24.6128974,0 L24.6128974,9.79293 C24.6128974,9.79293 24.6128974,13.8733175 0.1305724,16.32155 L0.1305724,6.52862 C0.1305724,6.52862 24.6128974,4.0803875 24.6128974,0" id="Path" fill="#000000"></path>
                                <path d="M0.1305724,19.58586 C0.1305724,19.58586 24.6128974,17.1376275 24.6128974,13.05724 L24.6128974,22.85017 C24.6128974,22.85017 24.6128974,26.9305575 0.1305724,29.37879 L0.1305724,19.58586 Z" id="Path" fill="#000000"></path>
                                <path d="M0.1305724,42.43603 L0.1305724,32.6431 C0.1305724,32.6431 24.6128974,30.1948675 24.6128974,26.11448 L24.6128974,35.90741 C24.6128974,35.90741 24.6128974,39.9877975 0.1305724,42.43603" id="Path" fill="#000000"></path>
                            </g>
                        </g>
                    </g>
                </g>
            </g>
        </g>
    </g>
</svg>